<svg width="27" height="29" viewBox="0 0 27 29" fill="none" xmlns="http://www.w3.org/2000/svg">
<g clip-path="url(#clip0_57_2376)">
<path d="M12.8566 19.7115C11.4359 19.7115 10.2852 20.8991 10.2852 22.3654C10.2852 23.8316 11.4359 25.0192 12.8566 25.0192C14.2773 25.0192 15.428 23.8316 15.428 22.3654C15.428 20.8991 14.2773 19.7115 12.8566 19.7115ZM12.8566 23.6923C12.1494 23.6923 11.5709 23.0952 11.5709 22.3654C11.5709 21.6355 12.1494 21.0384 12.8566 21.0384C13.5637 21.0384 14.1423 21.6355 14.1423 22.3654C14.1423 23.0952 13.5637 23.6923 12.8566 23.6923Z" fill="white"/>
<path d="M16.5544 4.83665C14.433 3.35049 11.5273 3.45665 9.49584 5.10867C7.97869 6.34272 7.13655 7.90849 7.07227 9.67994C7.07227 10.7813 8.08155 11.6836 9.32227 11.6836C10.5116 11.6836 11.3216 10.8211 11.5916 9.96523C11.7394 9.50744 12.0094 9.16244 12.4787 8.85724C12.9223 8.56532 13.5137 8.57859 13.9508 8.89042C14.3044 9.14253 14.5166 9.52071 14.5551 9.95196C14.5937 10.3898 14.4458 10.8211 14.1437 11.1396C13.9251 11.3651 13.6358 11.6305 13.3144 11.9224C12.0351 13.0769 10.2866 14.6692 10.2866 16.3743V17.0444C10.2866 18.1457 11.2958 19.048 12.5366 19.048C14.0408 19.048 14.523 18.0197 14.7608 17.2434C14.9023 16.7657 15.8923 15.9298 16.5544 15.3725C16.8951 15.0872 17.2101 14.8152 17.448 14.5829C18.7466 13.2892 19.4023 11.4647 19.248 9.57379C19.0808 7.64974 18.1037 5.92473 16.5544 4.83665ZM16.548 13.6209C16.3487 13.82 16.0466 14.0721 15.7316 14.3375C14.8187 15.1071 13.7837 15.9828 13.5266 16.8453C13.308 17.5884 13.0766 17.7145 12.5366 17.7145C12.0223 17.7145 11.5723 17.396 11.5723 17.0378V16.3677C11.5723 15.2597 13.1344 13.8465 14.163 12.9044C14.5101 12.5925 14.8187 12.3073 15.0566 12.0618C15.6287 11.4713 15.9116 10.6486 15.8344 9.81927C15.7573 9.00321 15.3394 8.26013 14.6773 7.78907C14.2337 7.4706 13.7066 7.31137 13.1794 7.31137C12.6908 7.31137 12.2023 7.4507 11.7844 7.72272C11.0708 8.19378 10.6016 8.78426 10.3637 9.53398C10.248 9.90552 9.90084 10.3368 9.31584 10.3368C8.80155 10.3368 8.35155 10.0183 8.35155 9.68657C8.40298 8.32647 9.05227 7.13224 10.2866 6.13704C11.8808 4.84329 14.163 4.7504 15.828 5.9181C17.0558 6.7806 17.8337 8.14734 17.9623 9.66004C18.0844 11.1661 17.5701 12.6058 16.548 13.6209Z" fill="white"/>
<path d="M23.1431 25.0192H21.8574V26.3461H23.1431V25.0192Z" fill="white"/>
<path d="M22.4992 17.0576C21.0077 17.0576 19.9277 18.1723 19.9277 19.7115H21.2134C21.2134 18.8954 21.7084 18.3846 22.4992 18.3846C23.2706 18.3846 23.7849 18.9153 23.7849 19.7115C23.7849 20.1494 23.4185 20.6934 23.0777 20.9787C22.1777 21.7218 21.8563 22.4317 21.8563 23.6923H23.142C23.142 22.8231 23.277 22.5047 23.8749 22.0137C24.4663 21.5228 25.0706 20.6204 25.0706 19.7115C25.0706 18.1988 23.9649 17.0576 22.4992 17.0576Z" fill="white"/>
<path d="M3.85798 21.0384H2.57227V22.3653H3.85798V21.0384Z" fill="white"/>
<path d="M5.78544 15.7307C5.78544 14.218 4.67972 13.0769 3.21401 13.0769C1.72258 13.0769 0.642578 14.1915 0.642578 15.7307H1.92829C1.92829 14.9147 2.42329 14.4038 3.21401 14.4038C3.98544 14.4038 4.49972 14.9346 4.49972 15.7307C4.49972 16.1686 4.13329 16.7126 3.79258 16.9979C2.89258 17.7344 2.57115 18.4443 2.57115 19.7115H3.85686C3.85686 18.8424 3.99186 18.5239 4.58972 18.0329C5.18758 17.542 5.78544 16.6397 5.78544 15.7307Z" fill="white"/>
<path d="M21.6669 -0.00123571L20.7578 0.937035L22.0442 2.26469L22.9534 1.32642L21.6669 -0.00123571Z" fill="white"/>
<path d="M24.2392 2.65263L23.3301 3.5909L24.6165 4.91856L25.5256 3.98029L24.2392 2.65263Z" fill="white"/>
<path d="M24.6204 -0.00122795L23.334 1.32642L24.2431 2.26469L25.5295 0.937042L24.6204 -0.00122795Z" fill="white"/>
<path d="M22.0501 2.65263L20.7637 3.98028L21.6728 4.91855L22.9592 3.5909L22.0501 2.65263Z" fill="white"/>
<path d="M7.07087 25.0192H5.78516V26.3461H7.07087V25.0192Z" fill="white"/>
<path d="M7.07087 27.6731H5.78516V29H7.07087V27.6731Z" fill="white"/>
<path d="M5.78571 26.3461H4.5V27.6731H5.78571V26.3461Z" fill="white"/>
<path d="M8.35798 26.3461H7.07227V27.6731H8.35798V26.3461Z" fill="white"/>
<path d="M25.7134 9.09608H24.4277V10.423H25.7134V9.09608Z" fill="white"/>
<path d="M25.7134 11.7499H24.4277V13.0769H25.7134V11.7499Z" fill="white"/>
<path d="M24.4283 10.423H23.1426V11.7499H24.4283V10.423Z" fill="white"/>
<path d="M27.0006 10.423H25.7148V11.7499H27.0006V10.423Z" fill="white"/>
<path d="M3.21345 1.79797H1.92773V3.1249H3.21345V1.79797Z" fill="white"/>
<path d="M3.21345 5.77876H1.92773V7.10569H3.21345V5.77876Z" fill="white"/>
<path d="M1.28571 3.78837H0V5.1153H1.28571V3.78837Z" fill="white"/>
<path d="M5.14314 3.78837H3.85742V5.1153H5.14314V3.78837Z" fill="white"/>
</g>
<defs>
<clipPath id="clip0_57_2376">
<rect width="27" height="29" fill="white"/>
</clipPath>
</defs>
</svg>
