<svg width="33" height="26" viewBox="0 0 33 26" fill="none" xmlns="http://www.w3.org/2000/svg">
<g clip-path="url(#clip0_57_2371)">
<path d="M28.4687 9.57948L32.7931 5.2758C32.9581 5.11159 33.0268 4.87212 32.9787 4.64633C32.9306 4.42054 32.7656 4.22896 32.5456 4.15369L21.5456 0.048431C21.2912 -0.0473584 21.0093 0.0142205 20.8168 0.205799L19.4006 1.61527L20.37 2.58001L21.4768 1.47843L31.0606 5.05685L27.3137 8.7858L20.2187 6.13106L19.7375 7.41054L25.54 9.57948L16.4993 12.9526L7.45872 9.57948L14.0106 7.13685L13.5293 5.85738L5.67122 8.7858L1.93122 5.05685L11.515 1.47843L12.5875 2.5458L13.5568 1.58106L12.1681 0.198957C11.9756 0.0073784 11.6937 -0.0542005 11.4393 0.0415889L0.439344 4.14685C0.226219 4.22896 0.0612191 4.42054 0.0130941 4.64633C-0.0350309 4.87212 0.0337191 5.11159 0.198719 5.2758L4.52997 9.57948L0.205594 13.8832C0.0405941 14.0474 -0.0281559 14.2869 0.0199691 14.5126C0.0680941 14.7384 0.233094 14.93 0.453094 15.0053L4.81184 16.6405V21.8953C4.81184 22.1963 5.00434 22.4563 5.29309 22.5453L16.2931 25.9663C16.3618 25.9869 16.4306 26.0005 16.4993 26.0005C16.5681 26.0005 16.6368 25.9869 16.7056 25.9663L27.7056 22.5453C27.9943 22.4563 28.1868 22.1963 28.1868 21.8953V16.6405L32.5525 15.0121C32.7725 14.93 32.9306 14.7453 32.9856 14.5195C33.0337 14.2937 32.965 14.0542 32.8 13.89L28.4687 9.57948ZM5.67122 10.3732L15.255 13.9516L11.5081 17.6805L1.93122 14.1021L5.67122 10.3732ZM6.18684 17.1537L11.4462 19.1174C11.5218 19.1447 11.6043 19.1584 11.6868 19.1584C11.8656 19.1584 12.0443 19.09 12.175 18.96L15.8118 15.3337V24.3858L6.18684 21.389V17.1537ZM26.8118 21.389L17.1868 24.3858V15.3337L20.8237 18.9532C20.9543 19.09 21.1331 19.1584 21.3118 19.1584C21.3943 19.1584 21.4768 19.1447 21.5525 19.1174L26.8118 17.1537V21.389ZM21.4837 17.6805L17.7368 13.9516L27.3206 10.3732L31.0675 14.1021L21.4837 17.6805Z" fill="white"/>
<path d="M17.1855 9.57894H15.8105V10.9474H17.1855V9.57894Z" fill="#505050"/>
<path d="M16.498 2.73684C17.323 2.73684 17.873 3.2842 17.873 4.10526C17.873 4.56368 17.4812 5.11789 17.1168 5.4121C16.1543 6.17157 15.8105 6.91052 15.8105 8.21052H17.1855C17.1855 7.30736 17.3299 6.98578 17.9693 6.47947C18.6087 5.97315 19.248 5.04263 19.248 4.10526C19.248 2.54526 18.0655 1.36842 16.498 1.36842C14.903 1.36842 13.748 2.51789 13.748 4.10526H15.123C15.123 3.26368 15.6524 2.73684 16.498 2.73684Z" fill="#505050"/>
</g>
<defs>
<clipPath id="clip0_57_2371">
<rect width="33" height="26" fill="white"/>
</clipPath>
</defs>
</svg>
