<svg width="25" height="34" viewBox="0 0 25 34" fill="none" xmlns="http://www.w3.org/2000/svg">
<path d="M13.2812 20.5417H11.7188V21.9583H13.2812V20.5417Z" fill="#505050"/>
<path d="M13.2812 19.125H11.7188C11.7188 17.7792 12.1094 17.0142 13.2031 16.2279C13.6172 15.9233 14.0625 15.3425 14.0625 14.875C14.0625 14.025 13.4375 13.4583 12.5 13.4583C11.5391 13.4583 10.9375 14.0037 10.9375 14.875H9.375C9.375 13.2317 10.6875 12.0417 12.5 12.0417C14.2812 12.0417 15.625 13.26 15.625 14.875C15.625 15.8454 14.8984 16.8087 14.1719 17.3329C13.4453 17.8571 13.2812 18.19 13.2812 19.125Z" fill="#505050"/>
<path d="M12.5 33.9992C12.1875 33.9992 11.875 33.9638 11.5625 33.9C10.2109 33.6096 9.10156 32.6392 8.73438 31.4209C8.3125 29.9829 8.85938 28.5379 10.1562 27.6242H1.5625C0.703125 27.6242 0 26.9867 0 26.2075V18.4158C0 17.7925 0.335937 17.3321 0.90625 17.1763C1.47656 17.0204 2.15625 17.24 2.49219 17.6933C3.13281 18.5575 4.33594 18.6142 5.00781 17.8704C5.41406 17.4242 5.5625 16.8079 5.41406 16.1846C5.27344 15.5896 4.8125 15.0867 4.25781 14.9308C3.27344 14.6617 2.65625 15.37 2.49219 15.5896C2.15625 16.0429 1.47656 16.2625 0.90625 16.1067C0.335937 15.9579 0 15.4904 0 14.8742V7.79085C0 7.01168 0.703125 6.37418 1.5625 6.37418H10.0938C8.85156 5.4321 8.32031 4.00126 8.74219 2.5846C9.10156 1.36626 10.2109 0.388764 11.5703 0.105431C12.7656 -0.149569 13.9922 0.0912641 14.9297 0.771264C15.8672 1.4371 16.4062 2.45001 16.4062 3.54085C16.4062 4.64585 15.8359 5.67293 14.8438 6.37418H23.4375C24.2969 6.37418 25 7.01168 25 7.79085V14.8742C25 15.4975 24.6641 15.9579 24.0938 16.1138C23.5234 16.2696 22.8359 16.05 22.5078 15.5967C22.3438 15.3771 21.7266 14.6688 20.7422 14.9379C20.1875 15.0938 19.7188 15.5967 19.5859 16.1917C19.4453 16.815 19.5938 17.4242 19.9922 17.8775C20.6641 18.6213 21.8672 18.5717 22.5078 17.7004C22.8438 17.2471 23.5234 17.0275 24.0938 17.1833C24.6641 17.3321 25 17.7925 25 18.4158V26.2075C25 26.9867 24.2969 27.6242 23.4375 27.6242H14.9062C15.8438 28.3467 16.4062 29.3667 16.4062 30.4575C16.4062 31.5483 15.8672 32.5613 14.9219 33.2342C14.2266 33.7371 13.375 33.9992 12.5 33.9992ZM1.5625 18.9117V26.2075H10.1562C10.8828 26.2075 11.4453 26.5475 11.6562 27.1142C11.8672 27.6879 11.6484 28.375 11.1484 28.715C10.3203 29.2817 9.97656 30.1529 10.2422 31.0454C10.4531 31.7679 11.1172 32.3488 11.9141 32.5188C12.6484 32.6746 13.375 32.5329 13.9453 32.1221C14.5156 31.7183 14.8438 31.1092 14.8438 30.4575C14.8438 29.7846 14.4844 29.1471 13.8516 28.7221C13.3516 28.3821 13.1328 27.6879 13.3438 27.1213C13.5547 26.5475 14.1172 26.2075 14.8438 26.2075H23.4375V18.9046C22.8281 19.4996 22.0312 19.8325 21.1797 19.8325C20.2656 19.8325 19.3906 19.4429 18.7812 18.7629C18.0781 17.9838 17.8203 16.9354 18.0547 15.9013C18.3125 14.7963 19.1875 13.8825 20.2891 13.585C21.4453 13.2663 22.6016 13.5708 23.4297 14.3854V7.79793H14.8359C14.1094 7.79793 13.5469 7.45793 13.3359 6.89126C13.125 6.31751 13.3437 5.63043 13.8437 5.29043C14.4844 4.84418 14.8438 4.21376 14.8438 3.54085C14.8438 2.88918 14.5156 2.28001 13.9531 1.87626C13.3828 1.46543 12.6562 1.32376 11.9219 1.4796C11.1172 1.6496 10.4609 2.23043 10.2422 2.95293C9.97656 3.84543 10.3125 4.71668 11.1484 5.28335C11.6484 5.62335 11.8672 6.31751 11.6562 6.88418C11.4453 7.45085 10.8828 7.79085 10.1562 7.79085H1.5625V14.3854C2.39062 13.5708 3.55469 13.2663 4.71094 13.585C5.8125 13.8896 6.6875 14.7963 6.94531 15.9013C7.1875 16.9425 6.92188 17.9838 6.21875 18.77C5.60938 19.4429 4.73438 19.8325 3.82031 19.8325C2.96875 19.8325 2.17188 19.4996 1.5625 18.9117ZM10.2109 27.5888C10.2031 27.5888 10.1953 27.5888 10.1953 27.5958C10.2031 27.5958 10.2031 27.5888 10.2109 27.5888ZM23.8047 14.8033C23.8047 14.8033 23.8047 14.8104 23.8047 14.8033C23.8047 14.8104 23.8047 14.8033 23.8047 14.8033ZM14.8047 6.40251C14.7969 6.40251 14.7969 6.4096 14.7891 6.4096C14.7969 6.4096 14.8047 6.4096 14.8047 6.40251Z" fill="white"/>
</svg>
