<svg width="38" height="34" viewBox="0 0 38 34" fill="none" xmlns="http://www.w3.org/2000/svg">
<path d="M14.0556 30.4789H2.07228C1.70374 30.4789 1.4043 30.1887 1.4043 29.8316V27.9232C1.4043 27.0359 2.1529 26.3105 3.06849 26.3105H13.0594C13.975 26.3105 14.7236 27.0359 14.7236 27.9232V29.8316C14.7236 30.1887 14.4241 30.4789 14.0556 30.4789ZM2.74026 29.1843H13.3876V27.9232C13.3876 27.7502 13.2379 27.6051 13.0594 27.6051H3.06849C2.88998 27.6051 2.74026 27.7502 2.74026 27.9232V29.1843Z" fill="white"/>
<path d="M12.8234 27.6051H3.3047C2.93616 27.6051 2.63672 27.3149 2.63672 26.9578V10.2396C2.63672 9.88248 2.93616 9.59232 3.3047 9.59232H9.64475C10.0133 9.59232 10.3127 9.88248 10.3127 10.2396C10.3127 10.5967 10.0133 10.8869 9.64475 10.8869H3.97268V26.3105H12.1554V16.6178C12.1554 16.2606 12.4549 15.9705 12.8234 15.9705C13.192 15.9705 13.4914 16.2606 13.4914 16.6178V26.9522C13.4914 27.3149 13.192 27.6051 12.8234 27.6051Z" fill="white"/>
<path d="M37.332 34H0.66798C0.299439 34 0 33.7098 0 33.3527V29.8316C0 29.4745 0.299439 29.1843 0.66798 29.1843H37.332C37.7006 29.1843 38 29.4745 38 29.8316V33.3527C38 33.7098 37.7006 34 37.332 34ZM1.33596 32.7054H36.6583V30.4789H1.33596V32.7054Z" fill="white"/>
<path d="M35.9267 30.4789H23.9434C23.5748 30.4789 23.2754 30.1887 23.2754 29.8316V27.9232C23.2754 27.0359 24.024 26.3105 24.9396 26.3105H34.9305C35.8461 26.3105 36.5947 27.0359 36.5947 27.9232V29.8316C36.5947 30.1887 36.2952 30.4789 35.9267 30.4789ZM24.6114 29.1843H35.2587V27.9232C35.2587 27.7502 35.1148 27.6051 34.9305 27.6051H24.9396C24.7611 27.6051 24.6114 27.7502 24.6114 27.9232V29.1843Z" fill="white"/>
<path d="M34.6945 27.6051H25.1758C24.8073 27.6051 24.5078 27.3149 24.5078 26.9578V16.6178C24.5078 16.2606 24.8073 15.9705 25.1758 15.9705C25.5443 15.9705 25.8438 16.2606 25.8438 16.6178V26.3049H34.0265V10.8869H28.2566C27.888 10.8869 27.5886 10.5967 27.5886 10.2396C27.5886 9.88248 27.888 9.59232 28.2566 9.59232H34.6945C35.0631 9.59232 35.3625 9.88248 35.3625 10.2396V26.9578C35.3625 27.3149 35.0631 27.6051 34.6945 27.6051Z" fill="white"/>
<path d="M34.8106 10.8869H26.5818C26.2132 10.8869 25.9138 10.5968 25.9138 10.2396C25.9138 9.88249 26.2132 9.59232 26.5818 9.59232H34.8048C35.0524 9.59232 35.2885 9.49746 35.4613 9.31889C35.634 9.14591 35.7204 8.91154 35.7089 8.67159C35.6859 8.21402 35.2425 7.84572 34.7185 7.84572H33.6128C33.1464 7.84572 32.6857 7.77318 32.2481 7.6281C32.2193 7.61694 32.1963 7.61136 32.1675 7.59462L18.9979 1.36714L5.82832 7.59462C5.80529 7.60578 5.77649 7.61694 5.7477 7.6281C5.3043 7.77318 4.84938 7.84572 4.38295 7.84572H3.27733C2.75907 7.84572 2.30991 8.21402 2.28687 8.67159C2.27536 8.91154 2.36173 9.14032 2.53449 9.31889C2.70724 9.49746 2.93758 9.59232 3.19095 9.59232H11.3161C11.6847 9.59232 11.9841 9.88249 11.9841 10.2396C11.9841 10.5968 11.6847 10.8869 11.3161 10.8869H3.19095C2.58056 10.8869 1.98744 10.6414 1.56707 10.2117C1.14094 9.77646 0.922123 9.20729 0.956673 8.60463C1.02002 7.45511 2.03926 6.55112 3.28309 6.55112H4.38871C4.69391 6.55112 4.9991 6.50648 5.28703 6.41162L18.7042 0.0669621C18.8885 -0.0223207 19.1073 -0.0223207 19.2916 0.0669621L32.7145 6.41162C33.0024 6.5009 33.3076 6.55112 33.6128 6.55112H34.7185C35.9623 6.55112 36.9815 7.45511 37.0449 8.60463C37.0794 9.20729 36.8606 9.77646 36.4345 10.2117C36.0141 10.6358 35.421 10.8869 34.8106 10.8869Z" fill="white"/>
<path d="M18.9981 17.6668C15.6813 17.6668 12.9863 15.0553 12.9863 11.8411C12.9863 8.62695 15.6813 6.01543 18.9981 6.01543C22.315 6.01543 25.01 8.62695 25.01 11.8411C25.01 15.0553 22.315 17.6668 18.9981 17.6668ZM18.9981 7.31003C16.4184 7.31003 14.3223 9.34121 14.3223 11.8411C14.3223 14.341 16.4184 16.3722 18.9981 16.3722C21.5779 16.3722 23.674 14.341 23.674 11.8411C23.674 9.34121 21.5779 7.31003 18.9981 7.31003Z" fill="white"/>
<path d="M20.4601 15.3511H17.5406C16.8496 15.3511 16.291 14.8042 16.291 14.1346V13.465C16.291 13.1078 16.5905 12.8177 16.959 12.8177C17.3275 12.8177 17.627 13.1078 17.627 13.465V14.0509H20.3795V12.4829H17.5406C16.8496 12.4829 16.291 11.936 16.291 11.2664V9.5421C16.291 8.87248 16.8553 8.33121 17.5406 8.33121H20.4601C21.1511 8.33121 21.7097 8.87806 21.7097 9.5421V10.2117C21.7097 10.5689 21.4103 10.859 21.0417 10.859C20.6732 10.859 20.3738 10.5689 20.3738 10.2117V9.62581H17.6212V11.1938H20.4601C21.1511 11.1938 21.7097 11.7407 21.7097 12.4047V14.1402C21.7097 14.8098 21.1511 15.3511 20.4601 15.3511Z" fill="white"/>
<path d="M18.9981 15.8365C18.6295 15.8365 18.3301 15.5464 18.3301 15.1892V8.49303C18.3301 8.13589 18.6295 7.84573 18.9981 7.84573C19.3666 7.84573 19.666 8.13589 19.666 8.49303V15.1892C19.666 15.5464 19.3666 15.8365 18.9981 15.8365Z" fill="white"/>
<path d="M8.06251 20.814C7.69397 20.814 7.39453 20.5239 7.39453 20.1667V10.2396C7.39453 9.88248 7.69397 9.59232 8.06251 9.59232C8.43105 9.59232 8.73049 9.88248 8.73049 10.2396V20.1667C8.73049 20.5239 8.43105 20.814 8.06251 20.814Z" fill="white"/>
<path d="M29.9317 20.814C29.5631 20.814 29.2637 20.5239 29.2637 20.1667V10.2396C29.2637 9.88248 29.5631 9.59232 29.9317 9.59232C30.3002 9.59232 30.5996 9.88248 30.5996 10.2396V20.1667C30.5996 20.5239 30.306 20.814 29.9317 20.814Z" fill="white"/>
<path d="M18.9981 24.2291C18.6295 24.2291 18.3301 23.9389 18.3301 23.5818V19.3186C18.3301 18.9614 18.6295 18.6713 18.9981 18.6713C19.3666 18.6713 19.666 18.9614 19.666 19.3186V23.5818C19.666 23.9389 19.3666 24.2291 18.9981 24.2291Z" fill="white"/>
<path d="M22.0899 23.5037C21.7213 23.5037 21.4219 23.2135 21.4219 22.8564V18.5931C21.4219 18.236 21.7213 17.9458 22.0899 17.9458C22.4584 17.9458 22.7578 18.236 22.7578 18.5931V22.8564C22.7578 23.2135 22.4584 23.5037 22.0899 23.5037Z" fill="white"/>
<path d="M15.9102 23.5037C15.5416 23.5037 15.2422 23.2135 15.2422 22.8564V18.5931C15.2422 18.236 15.5416 17.9458 15.9102 17.9458C16.2787 17.9458 16.5781 18.236 16.5781 18.5931V22.8564C16.5781 23.2135 16.2787 23.5037 15.9102 23.5037Z" fill="white"/>
</svg>
