<svg width="172" height="47" viewBox="0 0 172 47" fill="none" xmlns="http://www.w3.org/2000/svg">
<path d="M146.427 14.1732L154.011 6.55711L161.616 14.1417L167.918 14.1299L153.995 0.270142L140.132 14.189L146.427 14.1732Z" fill="#161616"/>
<path d="M90.5614 30.0918H83.9786L83.0715 33.1919H77.1553L84.1561 14.4493L90.4668 14.4296L97.5662 33.18H91.4962L90.5614 30.0918ZM89.3466 26.0254L87.2641 19.3203L85.2329 26.0688L89.3466 26.0254Z" fill="#F84134"/>
<path d="M98.8789 19.5807H103.722V21.7973C104.315 21.0028 105.066 20.3394 105.927 19.8489C106.769 19.436 107.699 19.2356 108.637 19.2652C109.259 19.2285 109.881 19.323 110.464 19.5425C111.047 19.762 111.577 20.1015 112.021 20.5391C112.836 21.3963 113.245 22.7202 113.247 24.5109L113.267 33.1525H108.041L108.021 25.6783C108.021 24.8304 107.86 24.223 107.544 23.8719C107.376 23.6898 107.168 23.5478 106.938 23.4563C106.707 23.3649 106.459 23.3263 106.211 23.3434C105.918 23.3354 105.628 23.3962 105.363 23.5208C105.097 23.6455 104.865 23.8306 104.685 24.0612C104.29 24.5385 104.089 25.3944 104.089 26.6368V33.1643H98.8868L98.8789 19.5807Z" fill="#F84134"/>
<path d="M130.149 14.3468L130.189 33.1091H125.314V31.0976C124.817 31.7935 124.185 32.3823 123.456 32.829C122.681 33.2299 121.82 33.4357 120.948 33.4285C120.119 33.4695 119.293 33.2974 118.549 32.9287C117.806 32.56 117.169 32.007 116.7 31.3224C115.686 29.8085 115.17 28.016 115.225 26.195C115.225 23.9442 115.76 22.2206 116.83 21.0242C117.344 20.4428 117.979 19.9803 118.69 19.669C119.401 19.3577 120.171 19.2051 120.948 19.2217C121.701 19.2108 122.449 19.3447 123.152 19.6162C123.82 19.8946 124.419 20.3128 124.911 20.8428V14.3428L130.149 14.3468ZM124.951 26.2857C124.951 25.2168 124.726 24.4241 124.269 23.9192C124.06 23.6659 123.797 23.4633 123.5 23.3266C123.202 23.19 122.877 23.1229 122.549 23.1304C122.255 23.1317 121.965 23.2003 121.702 23.3309C121.439 23.4615 121.209 23.6506 121.03 23.8837C120.616 24.3925 120.411 25.2366 120.423 26.4198C120.423 27.536 120.636 28.3485 121.062 28.8573C121.243 29.1048 121.481 29.3054 121.755 29.4426C122.03 29.5798 122.333 29.6496 122.64 29.6461C122.959 29.6526 123.275 29.5847 123.563 29.4477C123.851 29.3108 124.104 29.1087 124.3 28.8573C124.75 28.3367 124.963 27.4887 124.963 26.3133" fill="#F84134"/>
<path d="M132.464 14.3428H137.67V17.8926H132.468L132.464 14.3428ZM132.464 19.5136H137.678L137.71 33.1012H132.495L132.464 19.5136Z" fill="#F84134"/>
<path d="M139.958 19.4939H144.809V21.7065C145.4 20.9145 146.146 20.2514 147.002 19.7581C147.846 19.3507 148.775 19.1506 149.712 19.1744C151.159 19.1744 152.287 19.5688 153.1 20.4523C153.912 21.3358 154.334 22.6294 154.338 24.4201V33.0538H149.101V25.5836C149.101 24.7277 148.943 24.1243 148.631 23.7772C148.461 23.5944 148.253 23.4515 148.021 23.3587C147.789 23.266 147.539 23.2257 147.29 23.2408C146.996 23.2336 146.705 23.295 146.439 23.4204C146.174 23.5457 145.941 23.7314 145.76 23.9626C145.365 24.4359 145.172 25.2996 145.176 26.5381V33.0657H139.97L139.958 19.4939Z" fill="#F84134"/>
<path d="M161.146 23.8482L156.176 23.3394C156.295 22.6087 156.564 21.9104 156.965 21.2885C157.371 20.7443 157.892 20.297 158.492 19.979C159.112 19.6712 159.778 19.4648 160.464 19.3677C161.36 19.2141 162.268 19.1363 163.177 19.135C164.437 19.11 165.696 19.1971 166.94 19.3953C167.811 19.537 168.629 19.9102 169.306 20.476C169.788 20.9271 170.15 21.491 170.36 22.1167C170.603 22.7591 170.736 23.4377 170.754 24.1243V30.1312C170.739 30.6351 170.78 31.139 170.876 31.634C171.001 32.1135 171.178 32.5778 171.405 33.0184H166.514C166.361 32.7666 166.229 32.5027 166.12 32.2295C166.039 31.9474 165.979 31.6602 165.938 31.3697C165.352 31.9599 164.664 32.4396 163.907 32.7856C162.883 33.1786 161.793 33.3689 160.696 33.3457C159.075 33.3457 157.845 32.9789 157.001 32.2295C156.6 31.8909 156.279 31.4677 156.062 30.9903C155.844 30.5129 155.735 29.9932 155.743 29.4686C155.703 28.5354 156.022 27.6225 156.634 26.9168C157.249 26.2502 158.357 25.7335 159.986 25.4259C161.958 25.0315 163.209 24.7514 163.785 24.5897C164.411 24.4175 165.028 24.2094 165.63 23.9665C165.681 23.4838 165.539 23.0008 165.236 22.6216C164.836 22.32 164.338 22.1792 163.84 22.2272C163.176 22.1809 162.511 22.3173 161.919 22.6216C161.537 22.9222 161.261 23.3366 161.13 23.8048L161.146 23.8482ZM165.654 26.5421C164.942 26.805 164.196 27.0325 163.418 27.2244C162.366 27.5058 161.697 27.7818 161.41 28.0527C161.275 28.1748 161.166 28.3238 161.092 28.4902C161.017 28.6565 160.978 28.8366 160.976 29.019C160.971 29.2072 161.007 29.3942 161.081 29.5672C161.155 29.7402 161.266 29.895 161.406 30.0208C161.76 30.311 162.212 30.4525 162.668 30.4152C163.237 30.4201 163.796 30.2745 164.289 29.9932C164.737 29.7621 165.105 29.4022 165.347 28.9598C165.576 28.4667 165.684 27.9257 165.662 27.3822L165.654 26.5421Z" fill="#F84134"/>
<path d="M9.57244 33.7283H9.45411C8.45356 33.7224 7.45413 33.6606 6.46051 33.5429C5.52405 33.4518 4.6109 33.1968 3.76271 32.7896C3.01312 32.3907 2.34436 31.8557 1.79064 31.2119C1.24333 30.6066 0.831824 29.8911 0.583733 29.1136C0.246881 28.0738 0.058335 26.9917 0.0236639 25.8992L0 14.5519H5.08006L5.09978 26.1792C5.0721 26.7126 5.15174 27.246 5.33399 27.7481C5.51623 28.2501 5.79737 28.7104 6.16075 29.1018C6.54245 29.4673 6.99458 29.7513 7.48958 29.9364C7.98459 30.1215 8.5121 30.2039 9.03998 30.1786C9.56932 30.2047 10.0985 30.1238 10.5959 29.9409C11.0933 29.7579 11.5487 29.4766 11.935 29.1136C12.3024 28.7194 12.5859 28.2545 12.7682 27.7474C12.9506 27.2403 13.0281 26.7014 12.996 26.1634L12.9683 14.54H18.0405V25.8795C18.0466 26.9521 17.8746 28.0184 17.5317 29.0348C17.2029 29.9902 16.6638 30.8595 15.9541 31.5787C15.3195 32.248 14.5451 32.7692 13.6862 33.1051C12.3583 33.561 10.9603 33.7787 9.55666 33.748" fill="#F84134"/>
<path d="M20.5091 33.3694L20.4775 19.9987H24.5558V23.3513L24.8792 22.9568L25.5142 22.168C26.0973 21.387 26.8325 20.7323 27.6756 20.2433C28.4861 19.8513 29.3787 19.6593 30.2787 19.6832C31.6947 19.6832 32.7675 20.0776 33.5208 20.8664C34.2742 21.6553 34.6765 22.9608 34.6804 24.7199L34.7041 33.3654H30.2117V25.9583C30.2117 24.921 29.9908 24.1598 29.5688 23.6786C29.3372 23.4307 29.0549 23.2354 28.7412 23.1061C28.4275 22.9768 28.0896 22.9165 27.7505 22.9292C27.356 22.9227 26.9652 23.0068 26.6083 23.175C26.2514 23.3432 25.9378 23.5911 25.6917 23.8995C25.1947 24.5148 24.9541 25.5245 24.9541 26.9759V33.3773L20.5091 33.3694Z" fill="#F84134"/>
<path d="M41.6942 19.9483L37.2334 19.9576L37.2614 33.3322L41.7222 33.3229L41.6942 19.9483Z" fill="#F84134"/>
<path d="M37.2286 17.155L37.2246 14.4612L41.6815 14.4493L41.6894 17.1432L37.2286 17.155Z" fill="#F84134"/>
<path d="M51.5415 33.6337H51.5218C49.3407 33.6337 47.5776 33.0815 46.2563 31.9968C45.4593 31.3621 44.8219 30.5495 44.3952 29.6242C43.9686 28.6989 43.7644 27.6866 43.7991 26.6683C43.7658 25.7268 43.9312 24.7889 44.2846 23.9156C44.6379 23.0424 45.1714 22.2534 45.8501 21.6001C47.2305 20.2788 49.1237 19.6083 51.4863 19.6083H51.5651C54.2472 19.6083 56.2981 20.3971 57.6667 21.9195C58.7775 23.2043 59.3634 24.8604 59.3075 26.5579C59.3399 27.4992 59.1761 28.437 58.8264 29.3116C58.4767 30.1862 57.9488 30.9784 57.2763 31.6379C55.9037 32.9553 53.9711 33.61 51.5336 33.6337H51.5415ZM51.577 22.3297C51.1171 22.322 50.6615 22.4196 50.2451 22.6151C49.8288 22.8106 49.4627 23.0989 49.175 23.4578C48.5637 24.1717 48.26 25.2445 48.26 26.6446C48.26 28.0448 48.5637 29.1216 49.1829 29.8512C49.4649 30.2062 49.8254 30.491 50.2359 30.6833C50.6465 30.8756 51.0961 30.9702 51.5494 30.9595C52.0068 30.9679 52.4603 30.8725 52.8756 30.6806C53.2909 30.4886 53.6574 30.2051 53.9474 29.8512C54.5351 29.1452 54.8427 28.0448 54.8427 26.5815C54.8427 25.2011 54.5193 24.148 53.9198 23.4262C53.6389 23.0782 53.283 22.7981 52.8787 22.6069C52.4744 22.4157 52.0321 22.3182 51.5849 22.3218" fill="#F84134"/>
<path d="M61.2298 33.2747L61.2021 19.912H65.2843V23.2645L65.6117 22.8701L66.2467 22.0813C66.8234 21.2974 67.5567 20.6419 68.4002 20.1565C69.2216 19.7631 70.1244 19.5698 71.0349 19.5925C72.4075 19.5925 73.4882 19.9869 74.2494 20.7758C75.0106 21.5646 75.405 22.8819 75.405 24.6292V33.2787H70.9323L70.9087 25.8755C70.9087 24.8343 70.6878 24.0652 70.254 23.5879C70.0275 23.3403 69.7494 23.1455 69.4392 23.0173C69.1291 22.8892 68.7946 22.8308 68.4594 22.8464C68.064 22.8369 67.6718 22.9187 67.3133 23.0857C66.9548 23.2526 66.6398 23.5001 66.3926 23.8088C65.8917 24.4241 65.6511 25.4299 65.6511 26.8892V33.2866L61.2298 33.2747Z" fill="#F84134"/>
<path d="M54.9057 17.155H50.6934L51.8884 14.4375H56.1008L54.9057 17.155Z" fill="#F84134"/>
<path d="M78.4844 39.3448H80.8154C81.0747 39.3407 81.3326 39.3835 81.5766 39.471C81.8458 39.5749 82.0745 39.7624 82.2293 40.0059C82.384 40.2494 82.4567 40.5361 82.4365 40.8239C82.4463 41.2401 82.3273 41.6491 82.0958 41.9951C81.8642 42.3411 81.5313 42.607 81.1428 42.7565V42.7565C81.427 42.869 81.6678 43.0694 81.8303 43.3283C81.9927 43.5872 82.0683 43.8913 82.046 44.1961C82.0567 44.6477 81.9351 45.0926 81.6961 45.476C81.4572 45.8593 81.1112 46.1644 80.701 46.3536C80.3891 46.4954 80.0498 46.5668 79.7071 46.5626H77.0566L78.4844 39.3448ZM79.644 46.1642C79.924 46.1715 80.2023 46.1191 80.4604 46.0104C80.8029 45.8571 81.0919 45.6053 81.2907 45.2871C81.4895 44.9689 81.589 44.5987 81.5766 44.2237C81.5859 44.0514 81.5574 43.8792 81.493 43.7191C81.4287 43.559 81.3302 43.4149 81.2043 43.2969C81.0784 43.1789 80.9282 43.0899 80.7643 43.0361C80.6004 42.9822 80.4267 42.9649 80.2553 42.9853H78.2162L77.597 46.1682L79.644 46.1642ZM80.2632 42.5672C80.4908 42.5683 80.7163 42.5237 80.9264 42.4361C81.1364 42.3484 81.3267 42.2195 81.486 42.0569C81.6453 41.8943 81.7703 41.7014 81.8536 41.4896C81.9369 41.2778 81.9769 41.0514 81.971 40.8239C81.971 40.1731 81.5569 39.7589 80.8154 39.7589H78.8433L78.299 42.5672H80.2632Z" fill="#333333"/>
<path d="M84.3017 41.4076H84.7316L83.7219 46.5823H83.2881L84.3017 41.4076ZM84.6646 39.3408H85.1773L85.0235 40.0942H84.5108L84.6646 39.3408Z" fill="#333333"/>
<path d="M88.6645 41.2892C89.9069 41.2892 90.467 42.0781 90.467 43.1193C90.4556 43.3872 90.4092 43.6524 90.329 43.9082H86.1837C86.1439 44.0949 86.1227 44.2852 86.1206 44.4761C86.105 44.7179 86.1417 44.9601 86.2282 45.1864C86.3148 45.4126 86.4491 45.6175 86.6221 45.7871C86.7951 45.9567 87.0026 46.087 87.2305 46.1691C87.4584 46.2512 87.7014 46.2832 87.9428 46.2628C88.5749 46.2453 89.184 46.0224 89.6782 45.6278L89.8438 46.0222C89.2999 46.4426 88.6376 46.6813 87.9506 46.7046C86.6254 46.7046 85.667 45.8763 85.667 44.5432C85.667 42.8906 86.9252 41.2892 88.6724 41.2892H88.6645ZM89.9661 43.5216C89.992 43.3785 90.0052 43.2333 90.0055 43.0878C90.0276 42.9046 90.0088 42.7187 89.9505 42.5436C89.8922 42.3685 89.7959 42.2085 89.6685 42.075C89.5411 41.9416 89.3857 41.838 89.2134 41.7717C89.0412 41.7054 88.8565 41.678 88.6724 41.6915C88.1361 41.7105 87.6191 41.8973 87.1946 42.2256C86.77 42.554 86.4592 43.0073 86.3059 43.5216H89.9661Z" fill="#333333"/>
<path d="M92.2899 41.4075H92.7238L92.566 42.2634C92.5338 42.4266 92.4862 42.5864 92.424 42.7407H92.4398C92.685 42.3093 93.0376 41.9486 93.4633 41.6936C93.889 41.4386 94.3733 41.2979 94.8694 41.2853C95.8199 41.2853 96.3051 41.7507 96.3051 42.5868C96.3004 42.8269 96.2727 43.066 96.2222 43.3007L95.5951 46.5823H95.1613L95.7608 43.4585C95.8154 43.1989 95.8457 42.9349 95.8515 42.6697C95.8644 42.5377 95.8474 42.4045 95.8018 42.28C95.7562 42.1554 95.6831 42.0428 95.588 41.9503C95.4929 41.8579 95.3782 41.7881 95.2525 41.746C95.1267 41.7039 94.9931 41.6907 94.8615 41.7073C93.5678 41.7073 92.4438 42.8432 92.1834 44.1566L91.718 46.5783H91.2842L92.2899 41.4075Z" fill="#333333"/>
<path d="M97.5947 41.4075H98.0404L98.8292 45.4897C98.8642 45.6749 98.8892 45.8619 98.9042 46.0498H98.9239C98.9239 46.0498 99.0777 45.7382 99.2237 45.4897L101.59 41.4075H102.075L99.0462 46.5783H98.632L97.5947 41.4075Z" fill="#333333"/>
<path d="M105.309 41.2892C106.552 41.2892 107.108 42.078 107.108 43.1193C107.097 43.3869 107.052 43.6519 106.974 43.9081H102.828C102.788 44.0949 102.767 44.2851 102.765 44.4761C102.75 44.7178 102.786 44.9601 102.873 45.1863C102.959 45.4126 103.094 45.6175 103.267 45.7871C103.44 45.9567 103.647 46.087 103.875 46.1691C104.103 46.2512 104.346 46.2831 104.587 46.2628C105.218 46.2382 105.824 46.0099 106.315 45.612L106.481 46.0064C105.937 46.4268 105.274 46.6655 104.587 46.6887C103.262 46.6887 102.304 45.8605 102.304 44.5274C102.304 42.8748 103.566 41.2734 105.309 41.2734V41.2892ZM106.603 43.5058C106.631 43.3629 106.646 43.2176 106.646 43.072C106.668 42.8884 106.649 42.7022 106.591 42.5268C106.532 42.3514 106.436 42.1912 106.308 42.0576C106.18 41.9241 106.024 41.8205 105.851 41.7545C105.679 41.6885 105.494 41.6616 105.309 41.6757C104.773 41.6964 104.257 41.8839 103.833 42.212C103.409 42.54 103.097 42.9924 102.943 43.5058H106.603Z" fill="#333333"/>
<path d="M108.933 41.4075H109.366L109.209 42.2634C109.178 42.4275 109.129 42.5876 109.063 42.7407H109.086C109.332 42.3093 109.684 41.9486 110.11 41.6936C110.536 41.4386 111.02 41.2979 111.516 41.2853C112.466 41.2853 112.952 41.7507 112.952 42.5868C112.947 42.8269 112.919 43.066 112.869 43.3007L112.242 46.5783H111.804L112.403 43.4546C112.459 43.1951 112.491 42.931 112.498 42.6657C112.511 42.5334 112.494 42.3998 112.448 42.2749C112.402 42.1501 112.329 42.0372 112.233 41.9447C112.138 41.8521 112.023 41.7824 111.896 41.7406C111.77 41.6988 111.636 41.6861 111.504 41.7034C110.214 41.7034 109.086 42.8393 108.826 44.1527L108.365 46.5744H107.927L108.933 41.4075Z" fill="#333333"/>
<path d="M115.015 41.4076H115.448L114.435 46.5783H114.001L115.015 41.4076ZM115.377 39.3408H115.89L115.74 40.0942H115.22L115.377 39.3408Z" fill="#333333"/>
<path d="M119.18 41.2892C119.552 41.2632 119.921 41.3668 120.226 41.5826C120.53 41.7983 120.75 42.1127 120.848 42.4724C120.851 42.3121 120.868 42.1523 120.899 41.9952L121.42 39.3605H121.854L120.45 46.598H120.048L120.162 45.9985C120.19 45.8467 120.231 45.6977 120.284 45.5528V45.5528C120.083 45.9014 119.797 46.193 119.452 46.4001C119.107 46.6071 118.714 46.7227 118.312 46.736C117.078 46.736 116.419 45.9472 116.419 44.7008C116.419 42.7051 117.784 41.3207 119.227 41.3207L119.18 41.2892ZM118.312 46.3101C119.775 46.3101 120.643 44.689 120.643 43.348C120.643 42.4645 120.213 41.7427 119.227 41.7427C118.123 41.7427 116.861 42.851 116.861 44.6772C116.861 45.6948 117.397 46.3101 118.3 46.3101" fill="#333333"/>
<path d="M125.546 41.2892C125.844 41.2704 126.143 41.3141 126.424 41.4175C126.704 41.5208 126.96 41.6816 127.175 41.8894C127.39 42.0973 127.559 42.3477 127.672 42.6247C127.784 42.9016 127.838 43.1991 127.829 43.4979C127.81 44.3335 127.473 45.1302 126.886 45.726C126.3 46.3217 125.509 46.6716 124.674 46.7045C124.373 46.7218 124.071 46.6759 123.789 46.5698C123.506 46.4637 123.249 46.2998 123.034 46.0884C122.818 45.8771 122.649 45.6232 122.538 45.3428C122.427 45.0624 122.375 44.7618 122.386 44.4603C122.41 43.631 122.75 42.8422 123.337 42.2556C123.924 41.6689 124.712 41.3288 125.542 41.305L125.546 41.2892ZM124.662 46.2943C125.378 46.2607 126.055 45.9574 126.557 45.4453C127.059 44.9332 127.349 44.2502 127.368 43.5334C127.376 43.2926 127.335 43.0526 127.246 42.8287C127.156 42.6048 127.022 42.4019 126.85 42.2328C126.678 42.0637 126.473 41.9321 126.248 41.8464C126.023 41.7607 125.782 41.7227 125.542 41.7349C124.822 41.7591 124.139 42.0594 123.635 42.5733C123.13 43.0873 122.843 43.7757 122.832 44.4958C122.821 44.7388 122.861 44.9813 122.95 45.208C123.038 45.4346 123.172 45.6404 123.345 45.8122C123.517 45.984 123.723 46.1181 123.95 46.2058C124.177 46.2936 124.419 46.3331 124.662 46.3219" fill="#333333"/>
<path d="M135.008 43.427H135.403C135.447 43.2088 135.47 42.987 135.474 42.7644C135.474 42.157 135.205 41.7113 134.314 41.7113C133.751 41.7198 133.203 41.8925 132.736 42.2083L132.551 41.8138C133.07 41.4675 133.682 41.2848 134.306 41.2893C135.351 41.2893 135.923 41.7547 135.923 42.7013C135.92 42.9 135.899 43.098 135.86 43.2929L135.217 46.5823H134.783L134.917 45.9079C134.946 45.7472 134.987 45.5889 135.04 45.4346H135.036C134.843 45.7969 134.56 46.1039 134.215 46.3262C133.87 46.5485 133.473 46.6787 133.064 46.7046C132.22 46.7046 131.518 46.2273 131.518 45.4109C131.518 43.7386 133.584 43.4388 135.028 43.4388L135.008 43.427ZM133.107 46.3102C134.204 46.3102 135.079 45.1033 135.308 44.0817L135.359 43.8411H135.028C134.038 43.8411 131.971 43.9358 131.971 45.3833C131.971 45.8684 132.322 46.3102 133.107 46.3102" fill="#333333"/>
<path d="M140.475 44.6062L141.011 41.8453H140.329L140.404 41.4509H141.082L141.374 39.9837H141.808L141.516 41.4509H142.873L142.802 41.8453H141.449L140.897 44.6891C140.863 44.8565 140.846 45.027 140.846 45.1979C140.846 46.105 141.386 46.2312 141.765 46.2312C141.866 46.239 141.967 46.239 142.068 46.2312L141.986 46.6256C141.912 46.6334 141.838 46.6334 141.765 46.6256C141.217 46.6256 140.412 46.46 140.412 45.2097C140.416 45.0084 140.437 44.8079 140.475 44.6102" fill="#333333"/>
<path d="M143.476 44.6891L144.107 41.4075H144.541L143.938 44.5076C143.883 44.7671 143.852 45.0312 143.847 45.2965C143.847 45.8447 144.064 46.2588 144.873 46.2588C146.162 46.2588 147.239 45.0006 147.464 43.7898L147.929 41.4075H148.363L147.361 46.5783H146.924L147.093 45.7185C147.129 45.5584 147.174 45.4004 147.227 45.2452H147.204C146.964 45.6763 146.616 46.0373 146.194 46.2926C145.772 46.5478 145.291 46.6885 144.798 46.7006C144.052 46.7006 143.394 46.3574 143.394 45.399C143.396 45.1588 143.424 44.9196 143.476 44.6851" fill="#333333"/>
<path d="M155.36 41.2892C155.699 41.2677 156.037 41.3221 156.352 41.4483C156.667 41.5746 156.949 41.7695 157.179 42.0188L156.867 42.3423C156.679 42.1365 156.449 41.9736 156.192 41.8647C155.936 41.7558 155.659 41.7034 155.38 41.7112C154.654 41.7337 153.964 42.0374 153.457 42.5584C152.95 43.0793 152.665 43.7767 152.663 44.5037C152.655 44.7442 152.698 44.9838 152.788 45.2068C152.879 45.4298 153.015 45.6314 153.188 45.7986C153.361 45.9658 153.567 46.0949 153.793 46.1776C154.02 46.2602 154.26 46.2946 154.501 46.2785C155.195 46.2694 155.862 46.0055 156.374 45.537L156.54 45.9314C155.983 46.4279 155.266 46.7079 154.52 46.7203C153.187 46.7203 152.209 45.892 152.209 44.5589C152.205 43.7115 152.533 42.8962 153.122 42.2878C153.712 41.6795 154.517 41.3266 155.364 41.305" fill="#333333"/>
<path d="M161.181 43.427H161.576C161.62 43.2088 161.644 42.987 161.647 42.7644C161.647 42.157 161.378 41.7113 160.487 41.7113C159.924 41.7198 159.376 41.8925 158.909 42.2083L158.724 41.8138C159.244 41.4675 159.855 41.2848 160.479 41.2893C161.524 41.2893 162.096 41.7547 162.096 42.7013C162.093 42.9 162.072 43.098 162.033 43.2929L161.39 46.5823H160.956L161.091 45.9079C161.119 45.7472 161.16 45.5889 161.213 45.4346V45.4346C161.016 45.7995 160.729 46.1079 160.379 46.3303C160.028 46.5526 159.627 46.6815 159.213 46.7046C158.369 46.7046 157.663 46.2273 157.663 45.4109C157.663 43.7386 159.734 43.4388 161.177 43.4388L161.181 43.427ZM159.257 46.3102C160.353 46.3102 161.229 45.1033 161.457 44.0817L161.509 43.8411H161.177C160.187 43.8411 158.121 43.9358 158.121 45.3833C158.121 45.8684 158.472 46.3102 159.257 46.3102" fill="#333333"/>
<path d="M163.201 45.6633C163.397 45.8672 163.634 46.0273 163.897 46.1334C164.159 46.2394 164.441 46.2889 164.724 46.2786C165.363 46.2786 166.12 45.8842 166.12 45.1506C166.12 44.0817 163.69 44.2631 163.69 42.8275C163.69 41.8059 164.653 41.2892 165.528 41.2892C165.803 41.2689 166.08 41.308 166.338 41.404C166.597 41.4999 166.832 41.6505 167.027 41.8454L166.727 42.1648C166.571 42.0068 166.382 41.8845 166.173 41.8062C165.965 41.728 165.742 41.6956 165.52 41.7113C164.917 41.7113 164.144 42.0189 164.144 42.8077C164.144 43.916 166.573 43.707 166.573 45.1506C166.573 46.0538 165.694 46.7045 164.735 46.7045C164.394 46.7252 164.052 46.6694 163.735 46.5411C163.417 46.4128 163.133 46.2153 162.901 45.963L163.201 45.6633Z" fill="#333333"/>
<path d="M171.08 43.427H171.475C171.521 43.2091 171.545 42.9871 171.546 42.7643C171.546 42.1569 171.278 41.7112 170.39 41.7112C169.827 41.7199 169.279 41.8927 168.812 42.2082L168.627 41.8138C169.148 41.4669 169.761 41.2842 170.386 41.2892C171.427 41.2892 171.999 41.7546 171.999 42.7012C171.996 42.8999 171.975 43.0979 171.936 43.2928L171.321 46.5823H170.887L171.021 45.9078C171.05 45.7471 171.091 45.5889 171.143 45.4345V45.4345C170.948 45.7997 170.661 46.1083 170.312 46.3308C169.962 46.5532 169.561 46.6819 169.148 46.7045C168.3 46.7045 167.598 46.2273 167.598 45.4109C167.598 43.7385 169.664 43.4388 171.108 43.4388L171.08 43.427ZM169.187 46.3101C170.284 46.3101 171.159 45.1032 171.388 44.0817L171.439 43.8411H171.108C170.118 43.8411 168.051 43.9357 168.051 45.3832C168.051 45.8684 168.402 46.3101 169.187 46.3101" fill="#333333"/>
</svg>
