<?xml version="1.0" encoding="utf-8"?>
<!-- Generator: Adobe Illustrator 24.3.0, SVG Export Plug-In . SVG Version: 6.00 Build 0)  -->
<svg version="1.1" id="Capa_1" xmlns="http://www.w3.org/2000/svg" xmlns:xlink="http://www.w3.org/1999/xlink" x="0px" y="0px"
	 viewBox="0 0 172 47" style="enable-background:new 0 0 172 47;" xml:space="preserve">
<style type="text/css">
	.st0{fill:#FFFFFF;}
</style>
<path class="st0" d="M146.43,14.17l7.58-7.62l7.6,7.58l6.3-0.01L153.99,0.27l-13.86,13.92L146.43,14.17z"/>
<path class="st0" d="M90.56,30.09h-6.58l-0.91,3.1h-5.92l7-18.74l6.31-0.02l7.1,18.75H91.5L90.56,30.09z M89.35,26.03l-2.08-6.71
	l-2.03,6.75L89.35,26.03z"/>
<path class="st0" d="M98.88,19.58h4.84v2.22c0.59-0.79,1.34-1.46,2.21-1.95c0.84-0.41,1.77-0.61,2.71-0.58
	c0.62-0.04,1.24,0.06,1.83,0.28s1.11,0.56,1.56,1c0.81,0.86,1.22,2.18,1.23,3.97l0.02,8.64h-5.23l-0.02-7.47
	c0-0.85-0.16-1.46-0.48-1.81c-0.17-0.18-0.38-0.32-0.61-0.42c-0.23-0.09-0.48-0.13-0.73-0.11c-0.29-0.01-0.58,0.05-0.85,0.18
	c-0.27,0.12-0.5,0.31-0.68,0.54c-0.39,0.48-0.6,1.33-0.6,2.58v6.53h-5.2L98.88,19.58z"/>
<path class="st0" d="M130.15,14.35l0.04,18.76h-4.87V31.1c-0.5,0.7-1.13,1.28-1.86,1.73c-0.78,0.4-1.64,0.61-2.51,0.6
	c-0.83,0.04-1.65-0.13-2.4-0.5c-0.74-0.37-1.38-0.92-1.85-1.61c-1.01-1.51-1.53-3.31-1.47-5.13c0-2.25,0.54-3.97,1.61-5.17
	c0.51-0.58,1.15-1.04,1.86-1.36c0.71-0.31,1.48-0.46,2.26-0.45c0.75-0.01,1.5,0.12,2.2,0.39c0.67,0.28,1.27,0.7,1.76,1.23v-6.5
	L130.15,14.35z M124.95,26.29c0-1.07-0.22-1.86-0.68-2.37c-0.21-0.25-0.47-0.46-0.77-0.59c-0.3-0.14-0.62-0.2-0.95-0.2
	c-0.29,0-0.58,0.07-0.85,0.2c-0.26,0.13-0.49,0.32-0.67,0.55c-0.41,0.51-0.62,1.35-0.61,2.54c0,1.12,0.21,1.93,0.64,2.44
	c0.18,0.25,0.42,0.45,0.69,0.59c0.28,0.14,0.58,0.21,0.89,0.2c0.32,0.01,0.64-0.06,0.92-0.2c0.29-0.14,0.54-0.34,0.74-0.59
	c0.45-0.52,0.66-1.37,0.66-2.54"/>
<path class="st0" d="M132.46,14.34h5.21v3.55h-5.2L132.46,14.34z M132.46,19.51h5.21l0.03,13.59h-5.22L132.46,19.51z"/>
<path class="st0" d="M139.96,19.49h4.85v2.21c0.59-0.79,1.34-1.46,2.19-1.95c0.84-0.41,1.77-0.61,2.71-0.58
	c1.45,0,2.57,0.39,3.39,1.28c0.81,0.88,1.23,2.18,1.24,3.97v8.63h-5.24v-7.47c0-0.86-0.16-1.46-0.47-1.81
	c-0.17-0.18-0.38-0.33-0.61-0.42c-0.23-0.09-0.48-0.13-0.73-0.12c-0.29-0.01-0.58,0.05-0.85,0.18c-0.26,0.13-0.5,0.31-0.68,0.54
	c-0.39,0.47-0.59,1.34-0.58,2.58v6.53h-5.21L139.96,19.49z"/>
<path class="st0" d="M161.15,23.85l-4.97-0.51c0.12-0.73,0.39-1.43,0.79-2.05c0.41-0.54,0.93-0.99,1.53-1.31
	c0.62-0.31,1.29-0.51,1.97-0.61c0.9-0.15,1.8-0.23,2.71-0.23c1.26-0.02,2.52,0.06,3.76,0.26c0.87,0.14,1.69,0.51,2.37,1.08
	c0.48,0.45,0.84,1.01,1.05,1.64c0.24,0.64,0.38,1.32,0.39,2.01v6.01c-0.01,0.5,0.03,1.01,0.12,1.5c0.12,0.48,0.3,0.94,0.53,1.38
	h-4.89c-0.15-0.25-0.29-0.52-0.39-0.79c-0.08-0.28-0.14-0.57-0.18-0.86c-0.59,0.59-1.27,1.07-2.03,1.42
	c-1.02,0.39-2.11,0.58-3.21,0.56c-1.62,0-2.85-0.37-3.69-1.12c-0.4-0.34-0.72-0.76-0.94-1.24c-0.22-0.48-0.33-1-0.32-1.52
	c-0.04-0.93,0.28-1.85,0.89-2.55c0.61-0.67,1.72-1.18,3.35-1.49c1.97-0.39,3.22-0.67,3.8-0.84c0.63-0.17,1.24-0.38,1.85-0.62
	c0.05-0.48-0.09-0.97-0.39-1.34c-0.4-0.3-0.9-0.44-1.4-0.39c-0.66-0.05-1.33,0.09-1.92,0.39c-0.38,0.3-0.66,0.72-0.79,1.18
	L161.15,23.85z M165.65,26.54c-0.71,0.26-1.46,0.49-2.24,0.68c-1.05,0.28-1.72,0.56-2.01,0.83c-0.14,0.12-0.24,0.27-0.32,0.44
	c-0.07,0.17-0.11,0.35-0.12,0.53c-0.01,0.19,0.03,0.38,0.1,0.55c0.07,0.17,0.19,0.33,0.33,0.45c0.35,0.29,0.81,0.43,1.26,0.39
	c0.57,0,1.13-0.14,1.62-0.42c0.45-0.23,0.82-0.59,1.06-1.03c0.23-0.49,0.34-1.03,0.32-1.58L165.65,26.54z"/>
<path class="st0" d="M9.57,33.73H9.45c-1-0.01-2-0.07-2.99-0.19c-0.94-0.09-1.85-0.35-2.7-0.75c-0.75-0.4-1.42-0.93-1.97-1.58
	c-0.55-0.61-0.96-1.32-1.21-2.1c-0.34-1.04-0.53-2.12-0.56-3.21L0,14.55h5.08L5.1,26.18c-0.03,0.53,0.05,1.07,0.23,1.57
	c0.18,0.5,0.46,0.96,0.83,1.35c0.38,0.37,0.83,0.65,1.33,0.83c0.5,0.19,1.02,0.27,1.55,0.24c0.53,0.03,1.06-0.05,1.56-0.24
	c0.5-0.18,0.95-0.46,1.34-0.83c0.37-0.39,0.65-0.86,0.83-1.37c0.18-0.51,0.26-1.05,0.23-1.58l-0.03-11.62h5.07v11.34
	c0.01,1.07-0.17,2.14-0.51,3.16c-0.33,0.96-0.87,1.82-1.58,2.54c-0.63,0.67-1.41,1.19-2.27,1.53c-1.33,0.46-2.73,0.67-4.13,0.64"/>
<path class="st0" d="M20.51,33.37L20.48,20h4.08v3.35l0.32-0.39l0.64-0.79c0.58-0.78,1.32-1.44,2.16-1.92
	c0.81-0.39,1.7-0.58,2.6-0.56c1.42,0,2.49,0.39,3.24,1.18c0.75,0.79,1.16,2.09,1.16,3.85l0.02,8.65h-4.49v-7.41
	c0-1.04-0.22-1.8-0.64-2.28c-0.23-0.25-0.51-0.44-0.83-0.57s-0.65-0.19-0.99-0.18c-0.39-0.01-0.79,0.08-1.14,0.25
	c-0.36,0.17-0.67,0.42-0.92,0.72c-0.5,0.62-0.74,1.62-0.74,3.08v6.4L20.51,33.37z"/>
<path class="st0" d="M41.69,19.95l-4.46,0.01l0.03,13.37l4.46-0.01L41.69,19.95z"/>
<path class="st0" d="M37.23,17.16l0-2.69l4.46-0.01l0.01,2.69L37.23,17.16z"/>
<path class="st0" d="M51.54,33.63h-0.02c-2.18,0-3.94-0.55-5.27-1.64c-0.8-0.63-1.43-1.45-1.86-2.37c-0.43-0.93-0.63-1.94-0.6-2.96
	c-0.03-0.94,0.13-1.88,0.49-2.75c0.35-0.87,0.89-1.66,1.57-2.32c1.38-1.32,3.27-1.99,5.64-1.99h0.08c2.68,0,4.73,0.79,6.1,2.31
	c1.11,1.28,1.7,2.94,1.64,4.64c0.03,0.94-0.13,1.88-0.48,2.75s-0.88,1.67-1.55,2.33C55.9,32.96,53.97,33.61,51.54,33.63L51.54,33.63
	z M51.58,22.33c-0.46-0.01-0.92,0.09-1.33,0.29c-0.42,0.2-0.78,0.48-1.07,0.84c-0.61,0.71-0.92,1.79-0.92,3.19
	c0,1.4,0.3,2.48,0.92,3.21c0.28,0.35,0.64,0.64,1.05,0.83c0.41,0.19,0.86,0.29,1.31,0.28c0.46,0.01,0.91-0.09,1.33-0.28
	c0.42-0.19,0.78-0.48,1.07-0.83c0.59-0.71,0.9-1.81,0.9-3.27c0-1.38-0.32-2.43-0.92-3.16c-0.28-0.35-0.64-0.63-1.04-0.82
	C52.47,22.42,52.03,22.32,51.58,22.33"/>
<path class="st0" d="M61.23,33.27L61.2,19.91h4.08v3.35l0.33-0.39l0.63-0.79c0.58-0.78,1.31-1.44,2.15-1.92
	c0.82-0.39,1.72-0.59,2.63-0.56c1.37,0,2.45,0.39,3.21,1.18c0.76,0.79,1.16,2.11,1.16,3.85v8.65h-4.47l-0.02-7.4
	c0-1.04-0.22-1.81-0.65-2.29c-0.23-0.25-0.5-0.44-0.81-0.57c-0.31-0.13-0.64-0.19-0.98-0.17c-0.4-0.01-0.79,0.07-1.15,0.24
	c-0.36,0.17-0.67,0.41-0.92,0.72c-0.5,0.62-0.74,1.62-0.74,3.08v6.4L61.23,33.27z"/>
<path class="st0" d="M54.91,17.16h-4.21l1.19-2.72h4.21L54.91,17.16z"/>
<path class="st0" d="M78.48,39.34h2.33c0.26,0,0.52,0.04,0.76,0.13c0.27,0.1,0.5,0.29,0.65,0.53c0.15,0.24,0.23,0.53,0.21,0.82
	c0.01,0.42-0.11,0.83-0.34,1.17c-0.23,0.35-0.56,0.61-0.95,0.76l0,0c0.28,0.11,0.53,0.31,0.69,0.57c0.16,0.26,0.24,0.56,0.22,0.87
	c0.01,0.45-0.11,0.9-0.35,1.28c-0.24,0.38-0.58,0.69-1,0.88c-0.31,0.14-0.65,0.21-0.99,0.21h-2.65L78.48,39.34z M79.64,46.16
	c0.28,0.01,0.56-0.05,0.82-0.15c0.34-0.15,0.63-0.41,0.83-0.72c0.2-0.32,0.3-0.69,0.29-1.06c0.01-0.17-0.02-0.34-0.08-0.5
	c-0.06-0.16-0.16-0.3-0.29-0.42s-0.28-0.21-0.44-0.26c-0.16-0.05-0.34-0.07-0.51-0.05h-2.04l-0.62,3.18L79.64,46.16z M80.26,42.57
	c0.23,0,0.45-0.04,0.66-0.13c0.21-0.09,0.4-0.22,0.56-0.38s0.28-0.36,0.37-0.57s0.12-0.44,0.12-0.67c0-0.65-0.41-1.06-1.16-1.06
	h-1.97l-0.54,2.81H80.26z"/>
<path class="st0" d="M84.3,41.41h0.43l-1.01,5.17h-0.43L84.3,41.41z M84.66,39.34h0.51l-0.15,0.75h-0.51L84.66,39.34z"/>
<path class="st0" d="M88.66,41.29c1.24,0,1.8,0.79,1.8,1.83c-0.01,0.27-0.06,0.53-0.14,0.79h-4.15c-0.04,0.19-0.06,0.38-0.06,0.57
	c-0.02,0.24,0.02,0.48,0.11,0.71c0.09,0.23,0.22,0.43,0.39,0.6c0.17,0.17,0.38,0.3,0.61,0.38s0.47,0.11,0.71,0.09
	c0.63-0.02,1.24-0.24,1.74-0.63l0.17,0.39c-0.54,0.42-1.21,0.66-1.89,0.68c-1.33,0-2.28-0.83-2.28-2.16
	C85.67,42.89,86.93,41.29,88.66,41.29L88.66,41.29z M89.97,43.52c0.03-0.14,0.04-0.29,0.04-0.43c0.02-0.18,0-0.37-0.06-0.54
	c-0.06-0.18-0.15-0.34-0.28-0.47c-0.13-0.13-0.28-0.24-0.46-0.3c-0.17-0.07-0.36-0.09-0.54-0.08c-0.54,0.02-1.05,0.21-1.48,0.53
	c-0.42,0.33-0.74,0.78-0.89,1.3H89.97z"/>
<path class="st0" d="M92.29,41.41h0.43l-0.16,0.86c-0.03,0.16-0.08,0.32-0.14,0.48h0.02c0.25-0.43,0.6-0.79,1.02-1.05
	c0.43-0.26,0.91-0.4,1.41-0.41c0.95,0,1.44,0.47,1.44,1.3c0,0.24-0.03,0.48-0.08,0.71l-0.63,3.28h-0.43l0.6-3.12
	c0.05-0.26,0.08-0.52,0.09-0.79c0.01-0.13,0-0.27-0.05-0.39c-0.05-0.12-0.12-0.24-0.21-0.33c-0.1-0.09-0.21-0.16-0.34-0.2
	c-0.13-0.04-0.26-0.06-0.39-0.04c-1.29,0-2.42,1.14-2.68,2.45l-0.47,2.42h-0.43L92.29,41.41z"/>
<path class="st0" d="M97.59,41.41h0.45l0.79,4.08c0.03,0.19,0.06,0.37,0.07,0.56h0.02c0,0,0.15-0.31,0.3-0.56l2.37-4.08h0.49
	l-3.03,5.17h-0.41L97.59,41.41z"/>
<path class="st0" d="M105.31,41.29c1.24,0,1.8,0.79,1.8,1.83c-0.01,0.27-0.06,0.53-0.13,0.79h-4.15c-0.04,0.19-0.06,0.38-0.06,0.57
	c-0.01,0.24,0.02,0.48,0.11,0.71c0.09,0.23,0.22,0.43,0.39,0.6c0.17,0.17,0.38,0.3,0.61,0.38s0.47,0.11,0.71,0.09
	c0.63-0.02,1.24-0.25,1.73-0.65l0.17,0.39c-0.54,0.42-1.21,0.66-1.89,0.68c-1.32,0-2.28-0.83-2.28-2.16c0-1.65,1.26-3.25,3-3.25
	V41.29z M106.6,43.51c0.03-0.14,0.04-0.29,0.04-0.43c0.02-0.18,0-0.37-0.06-0.55c-0.06-0.18-0.16-0.34-0.28-0.47
	c-0.13-0.13-0.28-0.24-0.46-0.3c-0.17-0.07-0.36-0.09-0.54-0.08c-0.54,0.02-1.05,0.21-1.48,0.54c-0.42,0.33-0.74,0.78-0.89,1.29
	H106.6z"/>
<path class="st0" d="M108.93,41.41h0.43l-0.16,0.86c-0.03,0.16-0.08,0.32-0.15,0.48h0.02c0.25-0.43,0.6-0.79,1.02-1.05
	s0.91-0.4,1.41-0.41c0.95,0,1.44,0.47,1.44,1.3c-0.01,0.24-0.03,0.48-0.08,0.71l-0.63,3.28h-0.44l0.6-3.12
	c0.06-0.26,0.09-0.52,0.1-0.79c0.01-0.13,0-0.27-0.05-0.39c-0.05-0.12-0.12-0.24-0.21-0.33c-0.1-0.09-0.21-0.16-0.34-0.2
	c-0.13-0.04-0.26-0.05-0.39-0.04c-1.29,0-2.42,1.14-2.68,2.45l-0.46,2.42h-0.44L108.93,41.41z"/>
<path class="st0" d="M115.01,41.41h0.43l-1.01,5.17H114L115.01,41.41z M115.38,39.34h0.51l-0.15,0.75h-0.52L115.38,39.34z"/>
<path class="st0" d="M119.18,41.29c0.37-0.03,0.74,0.08,1.05,0.29c0.3,0.22,0.52,0.53,0.62,0.89c0-0.16,0.02-0.32,0.05-0.48
	l0.52-2.63h0.43l-1.4,7.24h-0.4l0.11-0.6c0.03-0.15,0.07-0.3,0.12-0.45l0,0c-0.2,0.35-0.49,0.64-0.83,0.85
	c-0.35,0.21-0.74,0.32-1.14,0.34c-1.23,0-1.89-0.79-1.89-2.04c0-2,1.36-3.38,2.81-3.38L119.18,41.29z M118.31,46.31
	c1.46,0,2.33-1.62,2.33-2.96c0-0.88-0.43-1.61-1.42-1.61c-1.1,0-2.37,1.11-2.37,2.93c0,1.02,0.54,1.63,1.44,1.63"/>
<path class="st0" d="M125.55,41.29c0.3-0.02,0.6,0.02,0.88,0.13c0.28,0.1,0.54,0.26,0.75,0.47c0.21,0.21,0.38,0.46,0.5,0.74
	c0.11,0.28,0.17,0.57,0.16,0.87c-0.02,0.84-0.36,1.63-0.94,2.23c-0.59,0.6-1.38,0.95-2.21,0.98c-0.3,0.02-0.6-0.03-0.89-0.13
	c-0.28-0.11-0.54-0.27-0.76-0.48c-0.22-0.21-0.38-0.47-0.5-0.75s-0.16-0.58-0.15-0.88c0.02-0.83,0.36-1.62,0.95-2.2
	c0.59-0.59,1.38-0.93,2.21-0.95L125.55,41.29z M124.66,46.29c0.72-0.03,1.39-0.34,1.89-0.85s0.79-1.2,0.81-1.91
	c0.01-0.24-0.03-0.48-0.12-0.7c-0.09-0.22-0.22-0.43-0.4-0.6c-0.17-0.17-0.38-0.3-0.6-0.39c-0.22-0.09-0.47-0.12-0.71-0.11
	c-0.72,0.02-1.4,0.32-1.91,0.84c-0.51,0.51-0.79,1.2-0.8,1.92c-0.01,0.24,0.03,0.49,0.12,0.71c0.09,0.23,0.22,0.43,0.4,0.6
	c0.17,0.17,0.38,0.31,0.6,0.39c0.23,0.09,0.47,0.13,0.71,0.12"/>
<path class="st0" d="M135.01,43.43h0.4c0.04-0.22,0.07-0.44,0.07-0.66c0-0.61-0.27-1.05-1.16-1.05c-0.56,0.01-1.11,0.18-1.58,0.5
	l-0.18-0.39c0.52-0.35,1.13-0.53,1.76-0.52c1.04,0,1.62,0.47,1.62,1.41c0,0.2-0.02,0.4-0.06,0.59l-0.64,3.29h-0.43l0.13-0.67
	c0.03-0.16,0.07-0.32,0.12-0.47h0c-0.19,0.36-0.48,0.67-0.82,0.89c-0.35,0.22-0.74,0.35-1.15,0.38c-0.84,0-1.55-0.48-1.55-1.29
	c0-1.67,2.07-1.97,3.51-1.97L135.01,43.43z M133.11,46.31c1.1,0,1.97-1.21,2.2-2.23l0.05-0.24h-0.33c-0.99,0-3.06,0.09-3.06,1.54
	C131.97,45.87,132.32,46.31,133.11,46.31"/>
<path class="st0" d="M140.48,44.61l0.54-2.76h-0.68l0.08-0.39h0.68l0.29-1.47h0.43l-0.29,1.47h1.36l-0.07,0.39h-1.35l-0.55,2.84
	c-0.03,0.17-0.05,0.34-0.05,0.51c0,0.91,0.54,1.03,0.92,1.03c0.1,0.01,0.2,0.01,0.3,0l-0.08,0.39c-0.07,0.01-0.15,0.01-0.22,0
	c-0.55,0-1.35-0.17-1.35-1.42C140.42,45.01,140.44,44.81,140.48,44.61"/>
<path class="st0" d="M143.48,44.69l0.63-3.28h0.43l-0.6,3.1c-0.06,0.26-0.09,0.52-0.09,0.79c0,0.55,0.22,0.96,1.03,0.96
	c1.29,0,2.37-1.26,2.59-2.47l0.46-2.38h0.43l-1,5.17h-0.44l0.17-0.86c0.04-0.16,0.08-0.32,0.13-0.47h-0.02
	c-0.24,0.43-0.59,0.79-1.01,1.05c-0.42,0.26-0.9,0.4-1.4,0.41c-0.75,0-1.4-0.34-1.4-1.3C143.4,45.16,143.42,44.92,143.48,44.69"/>
<path class="st0" d="M155.36,41.29c0.34-0.02,0.68,0.03,0.99,0.16c0.32,0.13,0.6,0.32,0.83,0.57l-0.31,0.32
	c-0.19-0.21-0.42-0.37-0.68-0.48c-0.26-0.11-0.53-0.16-0.81-0.15c-0.73,0.02-1.42,0.33-1.92,0.85c-0.51,0.52-0.79,1.22-0.79,1.95
	c-0.01,0.24,0.04,0.48,0.12,0.7c0.09,0.22,0.23,0.42,0.4,0.59c0.17,0.17,0.38,0.3,0.6,0.38c0.23,0.08,0.47,0.12,0.71,0.1
	c0.69-0.01,1.36-0.27,1.87-0.74l0.17,0.39c-0.56,0.5-1.27,0.78-2.02,0.79c-1.33,0-2.31-0.83-2.31-2.16c0-0.85,0.32-1.66,0.91-2.27
	c0.59-0.61,1.4-0.96,2.24-0.98"/>
<path class="st0" d="M161.18,43.43h0.4c0.04-0.22,0.07-0.44,0.07-0.66c0-0.61-0.27-1.05-1.16-1.05c-0.56,0.01-1.11,0.18-1.58,0.5
	l-0.18-0.39c0.52-0.35,1.13-0.53,1.76-0.52c1.04,0,1.62,0.47,1.62,1.41c0,0.2-0.02,0.4-0.06,0.59l-0.64,3.29h-0.43l0.14-0.67
	c0.03-0.16,0.07-0.32,0.12-0.47l0,0c-0.2,0.36-0.48,0.67-0.83,0.9c-0.35,0.22-0.75,0.35-1.17,0.37c-0.84,0-1.55-0.48-1.55-1.29
	c0-1.67,2.07-1.97,3.51-1.97L161.18,43.43z M159.26,46.31c1.1,0,1.97-1.21,2.2-2.23l0.05-0.24h-0.33c-0.99,0-3.06,0.09-3.06,1.54
	C158.12,45.87,158.47,46.31,159.26,46.31"/>
<path class="st0" d="M163.2,45.66c0.2,0.2,0.43,0.36,0.7,0.47c0.26,0.11,0.54,0.16,0.83,0.15c0.64,0,1.4-0.39,1.4-1.13
	c0-1.07-2.43-0.89-2.43-2.32c0-1.02,0.96-1.54,1.84-1.54c0.27-0.02,0.55,0.02,0.81,0.11c0.26,0.1,0.49,0.25,0.69,0.44l-0.3,0.32
	c-0.16-0.16-0.35-0.28-0.55-0.36c-0.21-0.08-0.43-0.11-0.65-0.09c-0.6,0-1.38,0.31-1.38,1.1c0,1.11,2.43,0.9,2.43,2.34
	c0,0.9-0.88,1.55-1.84,1.55c-0.34,0.02-0.68-0.04-1-0.16c-0.32-0.13-0.6-0.33-0.83-0.58L163.2,45.66z"/>
<path class="st0" d="M171.08,43.43h0.4c0.05-0.22,0.07-0.44,0.07-0.66c0-0.61-0.27-1.05-1.16-1.05c-0.56,0.01-1.11,0.18-1.58,0.5
	l-0.18-0.39c0.52-0.35,1.13-0.53,1.76-0.52c1.04,0,1.61,0.47,1.61,1.41c0,0.2-0.02,0.4-0.06,0.59l-0.62,3.29h-0.43l0.13-0.67
	c0.03-0.16,0.07-0.32,0.12-0.47l0,0c-0.2,0.37-0.48,0.67-0.83,0.9c-0.35,0.22-0.75,0.35-1.16,0.37c-0.85,0-1.55-0.48-1.55-1.29
	c0-1.67,2.07-1.97,3.51-1.97L171.08,43.43z M169.19,46.31c1.1,0,1.97-1.21,2.2-2.23l0.05-0.24h-0.33c-0.99,0-3.06,0.09-3.06,1.54
	C168.05,45.87,168.4,46.31,169.19,46.31"/>
</svg>
