<svg width="20" height="19" viewBox="0 0 20 19" fill="none" xmlns="http://www.w3.org/2000/svg">
<path d="M17.2681 6.557V0H15.3854V2H4.08953V0H2.20687V6.557C1.08669 7.25 0.324219 8.525 0.324219 10V14C0.324219 14.2652 0.423394 14.5196 0.599927 14.7071C0.77646 14.8946 1.01589 15 1.26555 15H2.20687V19H4.08953V15H15.3854V19H17.2681V15H18.2094C18.4591 15 18.6985 14.8946 18.875 14.7071C19.0516 14.5196 19.1508 14.2652 19.1508 14V10C19.1508 8.525 18.3873 7.25 17.2681 6.557ZM15.3854 4V6H10.6788V4H15.3854ZM4.08953 4H8.79616V6H4.08953V4ZM17.2681 13H2.20687V10C2.20687 8.897 3.05124 8 4.08953 8H15.3854C16.4237 8 17.2681 8.897 17.2681 10V13Z" fill="#484848"/>
</svg>
