<svg width="20" height="18" viewBox="0 0 20 18" fill="none" xmlns="http://www.w3.org/2000/svg">
<path d="M17.9948 6.156L16.7071 2.051C16.5203 1.45348 16.161 0.9337 15.6802 0.565508C15.1994 0.197316 14.6217 -0.000558206 14.029 1.18277e-06H5.44598C4.85331 -0.000558206 4.27555 0.197316 3.79478 0.565508C3.31402 0.9337 2.95471 1.45348 2.7679 2.051L1.48017 6.156C1.1381 6.30848 0.845975 6.56476 0.640358 6.89276C0.434742 7.22077 0.324773 7.60592 0.324219 8V13C0.324219 13.753 0.7224 14.402 1.30226 14.743C1.29002 14.809 1.26555 14.869 1.26555 14.938V17C1.26555 17.2652 1.36472 17.5196 1.54125 17.7071C1.71779 17.8946 1.95722 18 2.20687 18H3.1482C3.39786 18 3.63728 17.8946 3.81382 17.7071C3.99035 17.5196 4.08953 17.2652 4.08953 17V15H15.3854V17C15.3854 17.2652 15.4846 17.5196 15.6612 17.7071C15.8377 17.8946 16.0771 18 16.3268 18H17.2681C17.5178 18 17.7572 17.8946 17.9337 17.7071C18.1103 17.5196 18.2094 17.2652 18.2094 17V14.938C18.2094 14.869 18.185 14.808 18.1727 14.743C18.4677 14.5721 18.7141 14.3202 18.8862 14.0136C19.0582 13.707 19.1496 13.3569 19.1508 13V8C19.1508 7.171 18.6726 6.459 17.9948 6.156ZM2.20687 13V8H17.2681L17.27 13H2.20687ZM5.44598 2H14.0281C14.4338 2 14.7934 2.274 14.9214 2.684L15.9625 6H3.51249L4.55266 2.684C4.61512 2.4848 4.73501 2.31153 4.89535 2.18876C5.05569 2.06599 5.24833 1.99995 5.44598 2Z" fill="#484848"/>
<path d="M4.56042 12C5.34023 12 5.9724 11.3284 5.9724 10.5C5.9724 9.67157 5.34023 9 4.56042 9C3.7806 9 3.14844 9.67157 3.14844 10.5C3.14844 11.3284 3.7806 12 4.56042 12Z" fill="#484848"/>
<path d="M14.9149 12C15.6947 12 16.3269 11.3284 16.3269 10.5C16.3269 9.67157 15.6947 9 14.9149 9C14.1351 9 13.5029 9.67157 13.5029 10.5C13.5029 11.3284 14.1351 12 14.9149 12Z" fill="#484848"/>
</svg>
