<svg width="17" height="16" viewBox="0 0 17 16" fill="none" xmlns="http://www.w3.org/2000/svg">
<path d="M15.9043 13.833L12.8459 10.7177C12.7079 10.5771 12.5208 10.499 12.3244 10.499H11.8244C12.6711 9.39596 13.1742 8.00859 13.1742 6.49937C13.1742 2.90909 10.3183 0 6.79363 0C3.26899 0 0.413086 2.90909 0.413086 6.49937C0.413086 10.0896 3.26899 12.9987 6.79363 12.9987C8.27526 12.9987 9.63726 12.4863 10.7201 11.6239V12.1332C10.7201 12.3332 10.7968 12.5238 10.9348 12.6644L13.9932 15.7797C14.2816 16.0734 14.7478 16.0734 15.0331 15.7797L15.9012 14.8954C16.1896 14.6017 16.1896 14.1267 15.9043 13.833ZM6.79363 10.499C4.62486 10.499 2.86714 8.71165 2.86714 6.49937C2.86714 4.29021 4.62179 2.49976 6.79363 2.49976C8.9624 2.49976 10.7201 4.28708 10.7201 6.49937C10.7201 8.70852 8.96546 10.499 6.79363 10.499Z" fill="white"/>
</svg>
