<svg width="31" height="35" viewBox="0 0 31 35" fill="none" xmlns="http://www.w3.org/2000/svg">
<path d="M7.75 15.3125C12.0333 15.3125 15.5 11.8877 15.5 7.65625C15.5 3.4248 12.0333 0 7.75 0C3.46674 0 0 3.4248 0 7.65625C0 11.8877 3.46674 15.3125 7.75 15.3125ZM7.75 4.375C9.5837 4.375 11.0714 5.84473 11.0714 7.65625C11.0714 9.46777 9.5837 10.9375 7.75 10.9375C5.91629 10.9375 4.42857 9.46777 4.42857 7.65625C4.42857 5.84473 5.91629 4.375 7.75 4.375ZM23.25 19.6875C18.9667 19.6875 15.5 23.1123 15.5 27.3438C15.5 31.5752 18.9667 35 23.25 35C27.5333 35 31 31.5752 31 27.3438C31 23.1123 27.5333 19.6875 23.25 19.6875ZM23.25 30.625C21.4163 30.625 19.9286 29.1553 19.9286 27.3438C19.9286 25.5322 21.4163 24.0625 23.25 24.0625C25.0837 24.0625 26.5714 25.5322 26.5714 27.3438C26.5714 29.1553 25.0837 30.625 23.25 30.625ZM27.1458 0.0136719L29.3324 0.00683594C30.6748 0 31.4705 1.49707 30.6955 2.59082L5.3558 34.2891C5.20302 34.5043 5 34.6801 4.76393 34.8014C4.52786 34.9228 4.26568 34.9862 3.99955 34.9863L1.68839 34.9932C0.339062 34.9932 -0.449777 33.4961 0.325223 32.4092L25.7895 0.710938C26.1009 0.273437 26.606 0.0136719 27.1458 0.0136719Z" fill="white"/>
</svg>
