<svg width="47" height="47" viewBox="0 0 47 47" fill="none" xmlns="http://www.w3.org/2000/svg">
<path d="M31.2393 16.5974H35.1445C35.1445 11.0578 29.765 8.53107 25.3813 7.94918V3.90527H21.4761V7.94918C17.0924 8.53107 11.7129 11.0578 11.7129 16.5974C11.7129 21.8812 16.9186 24.6286 21.4761 25.2476V34.9522C18.6487 34.4621 15.6182 32.9527 15.6182 30.2659H11.7129C11.7129 35.3212 16.448 38.3088 21.4761 38.9278V42.958H25.3813V38.916C29.765 38.3342 35.1445 35.8055 35.1445 30.2659C35.1445 24.7262 29.765 22.1995 25.3813 21.6176V11.9111C27.9784 12.3778 31.2393 13.7485 31.2393 16.5974ZM15.6182 16.5974C15.6182 13.7485 18.8791 12.3778 21.4761 11.9111V21.2818C18.799 20.7878 15.6182 19.3252 15.6182 16.5974ZM31.2393 30.2659C31.2393 33.1148 27.9784 34.4855 25.3813 34.9522V25.5795C27.9784 26.0462 31.2393 27.417 31.2393 30.2659Z" fill="white"/>
</svg>
