<svg width="28" height="30" viewBox="0 0 28 30" fill="none" xmlns="http://www.w3.org/2000/svg">
<path d="M19.25 12.1875C19.25 11.9389 19.3422 11.7004 19.5063 11.5246C19.6704 11.3488 19.8929 11.25 20.125 11.25H21.875C22.1071 11.25 22.3296 11.3488 22.4937 11.5246C22.6578 11.7004 22.75 11.9389 22.75 12.1875V14.0625C22.75 14.3111 22.6578 14.5496 22.4937 14.7254C22.3296 14.9012 22.1071 15 21.875 15H20.125C19.8929 15 19.6704 14.9012 19.5063 14.7254C19.3422 14.5496 19.25 14.3111 19.25 14.0625V12.1875ZM14 12.1875C14 11.9389 14.0922 11.7004 14.2563 11.5246C14.4204 11.3488 14.6429 11.25 14.875 11.25H16.625C16.8571 11.25 17.0796 11.3488 17.2437 11.5246C17.4078 11.7004 17.5 11.9389 17.5 12.1875V14.0625C17.5 14.3111 17.4078 14.5496 17.2437 14.7254C17.0796 14.9012 16.8571 15 16.625 15H14.875C14.6429 15 14.4204 14.9012 14.2563 14.7254C14.0922 14.5496 14 14.3111 14 14.0625V12.1875ZM5.25 17.8125C5.25 17.5639 5.34219 17.3254 5.50628 17.1496C5.67038 16.9738 5.89294 16.875 6.125 16.875H7.875C8.10706 16.875 8.32962 16.9738 8.49372 17.1496C8.65781 17.3254 8.75 17.5639 8.75 17.8125V19.6875C8.75 19.9361 8.65781 20.1746 8.49372 20.3504C8.32962 20.5262 8.10706 20.625 7.875 20.625H6.125C5.89294 20.625 5.67038 20.5262 5.50628 20.3504C5.34219 20.1746 5.25 19.9361 5.25 19.6875V17.8125ZM10.5 17.8125C10.5 17.5639 10.5922 17.3254 10.7563 17.1496C10.9204 16.9738 11.1429 16.875 11.375 16.875H13.125C13.3571 16.875 13.5796 16.9738 13.7437 17.1496C13.9078 17.3254 14 17.5639 14 17.8125V19.6875C14 19.9361 13.9078 20.1746 13.7437 20.3504C13.5796 20.5262 13.3571 20.625 13.125 20.625H11.375C11.1429 20.625 10.9204 20.5262 10.7563 20.3504C10.5922 20.1746 10.5 19.9361 10.5 19.6875V17.8125Z" fill="white"/>
<path d="M6.125 0C6.35706 0 6.57962 0.0987721 6.74372 0.274587C6.90781 0.450403 7 0.68886 7 0.9375V1.875H21V0.9375C21 0.68886 21.0922 0.450403 21.2563 0.274587C21.4204 0.0987721 21.6429 0 21.875 0C22.1071 0 22.3296 0.0987721 22.4937 0.274587C22.6578 0.450403 22.75 0.68886 22.75 0.9375V1.875H24.5C25.4283 1.875 26.3185 2.27009 26.9749 2.97335C27.6313 3.67661 28 4.63044 28 5.625V26.25C28 27.2446 27.6313 28.1984 26.9749 28.9016C26.3185 29.6049 25.4283 30 24.5 30H3.5C2.57174 30 1.6815 29.6049 1.02513 28.9016C0.368749 28.1984 0 27.2446 0 26.25V5.625C0 4.63044 0.368749 3.67661 1.02513 2.97335C1.6815 2.27009 2.57174 1.875 3.5 1.875H5.25V0.9375C5.25 0.68886 5.34219 0.450403 5.50628 0.274587C5.67038 0.0987721 5.89294 0 6.125 0V0ZM1.75 7.5V26.25C1.75 26.7473 1.93437 27.2242 2.26256 27.5758C2.59075 27.9275 3.03587 28.125 3.5 28.125H24.5C24.9641 28.125 25.4092 27.9275 25.7374 27.5758C26.0656 27.2242 26.25 26.7473 26.25 26.25V7.5H1.75Z" fill="white"/>
</svg>
