<svg width="36" height="29" viewBox="0 0 36 29" fill="none" xmlns="http://www.w3.org/2000/svg">
<path d="M29.25 17.9168V4.25016C29.25 2.371 27.7875 0.833496 26 0.833496H3.25C1.4625 0.833496 0 2.371 0 4.25016V17.9168C0 19.796 1.4625 21.3335 3.25 21.3335H26C27.7875 21.3335 29.25 19.796 29.25 17.9168ZM26 17.9168H3.25V4.25016H26V17.9168ZM14.625 5.9585C11.9275 5.9585 9.75 8.24766 9.75 11.0835C9.75 13.9193 11.9275 16.2085 14.625 16.2085C17.3225 16.2085 19.5 13.9193 19.5 11.0835C19.5 8.24766 17.3225 5.9585 14.625 5.9585ZM35.75 5.9585V24.7502C35.75 26.6293 34.2875 28.1668 32.5 28.1668H4.875V24.7502H32.5V5.9585H35.75Z" fill="white"/>
</svg>
