<svg width="41" height="40" viewBox="0 0 41 40" fill="none" xmlns="http://www.w3.org/2000/svg">
<path d="M2.67442 2.77708C-0.538242 6.03206 0.11928 9.48975 0.11928 19.9941C0.11928 28.7172 -1.44106 37.462 6.72516 39.5206C9.27519 40.1603 31.8694 40.1603 34.416 39.5173C37.8161 38.6616 40.5824 35.9716 40.9606 31.281C41.0134 30.6264 41.0134 9.37344 40.9589 8.7055C40.5569 3.70921 37.4039 0.82974 33.2492 0.246535C32.297 0.11195 32.1062 0.0720723 27.2208 0.0637645C9.89183 0.0720723 6.09319 -0.680611 2.67442 2.77708Z" fill="url(#paint0_linear_268_1932)"/>
<path d="M20.5004 5.01446C14.5612 5.01446 8.92134 4.46835 6.76714 10.1831C5.87733 12.5434 6.00655 15.6087 6.00655 19.9979C6.00655 23.8494 5.88714 27.4693 6.76714 29.811C8.91643 35.5291 14.6021 34.9813 20.4971 34.9813C26.1844 34.9813 32.0483 35.5934 34.2287 29.811C35.1201 27.427 34.9893 24.4074 34.9893 19.9979C34.9893 14.1445 35.3017 10.3657 32.5554 7.5286C29.7747 4.65433 26.0143 5.01446 20.4938 5.01446H20.5004ZM19.2016 7.71459C31.5903 7.6943 33.1671 6.27069 32.2969 26.0474C31.9878 33.042 26.8354 32.2744 20.502 32.2744C8.95405 32.2744 8.62201 31.9329 8.62201 19.9911C8.62201 7.91072 9.53799 7.72135 19.2016 7.71121V7.71459ZM28.2372 10.2017C27.277 10.2017 26.4984 11.0065 26.4984 11.9989C26.4984 12.9914 27.277 13.7962 28.2372 13.7962C29.1973 13.7962 29.9759 12.9914 29.9759 11.9989C29.9759 11.0065 29.1973 10.2017 28.2372 10.2017ZM20.5004 12.3033C16.3899 12.3033 13.058 15.749 13.058 19.9979C13.058 24.2467 16.3899 27.6908 20.5004 27.6908C24.6108 27.6908 27.9411 24.2467 27.9411 19.9979C27.9411 15.749 24.6108 12.3033 20.5004 12.3033ZM20.5004 15.0034C26.8877 15.0034 26.8959 24.9924 20.5004 24.9924C14.1146 24.9924 14.1048 15.0034 20.5004 15.0034Z" fill="white"/>
<defs>
<linearGradient id="paint0_linear_268_1932" x1="2.75281" y1="37.394" x2="39.9358" y2="4.40159" gradientUnits="userSpaceOnUse">
<stop stop-color="#FFDD55"/>
<stop offset="0.5" stop-color="#FF543E"/>
<stop offset="1" stop-color="#C837AB"/>
</linearGradient>
</defs>
</svg>
