<svg width="40" height="40" viewBox="0 0 40 40" fill="none" xmlns="http://www.w3.org/2000/svg">
<path d="M19.7486 39.6412C30.6554 39.6412 39.4971 30.7994 39.4971 19.8926C39.4971 8.98578 30.6554 0.144043 19.7486 0.144043C8.84174 0.144043 0 8.98578 0 19.8926C0 30.7994 8.84174 39.6412 19.7486 39.6412Z" fill="#007AB9"/>
<path d="M31.5485 21.4821V29.624H26.828V22.0278C26.828 20.1204 26.1465 18.8179 24.4374 18.8179C23.1331 18.8179 22.3582 19.6948 22.016 20.5439C21.8918 20.8474 21.8597 21.2688 21.8597 21.6944V29.6237H17.1389C17.1389 29.6237 17.2023 16.7581 17.1389 15.4264H21.8601V17.4383C21.8506 17.4541 21.8372 17.4696 21.8288 17.4847H21.8601V17.4383C22.4874 16.473 23.6062 15.093 26.1145 15.093C29.2201 15.093 31.5485 17.1221 31.5485 21.4821ZM12.2006 8.58276C10.5858 8.58276 9.5293 9.64275 9.5293 11.0354C9.5293 12.3985 10.5551 13.4891 12.1386 13.4891H12.1692C13.8157 13.4891 14.8394 12.3985 14.8394 11.0354C14.8081 9.64275 13.8157 8.58276 12.2006 8.58276ZM9.80987 29.624H14.5289V15.4264H9.80987V29.624Z" fill="#F1F2F2"/>
</svg>
