<svg width="41" height="30" viewBox="0 0 41 30" fill="none" xmlns="http://www.w3.org/2000/svg">
<path d="M0.916623 24.7745C1.75231 27.7386 4.30884 28.281 4.47939 28.385C8.68682 29.5311 32.2703 29.5345 36.5408 28.385C39.4658 27.5391 40.003 24.945 40.1036 24.7745C41.2173 18.8496 41.2906 11.1255 40.0524 4.40245L40.1036 4.73672C39.2679 1.77259 36.7114 1.23024 36.5408 1.12621C32.3897 -0.00112027 8.74481 -0.0437574 4.47939 1.12621C1.55448 1.97383 1.01725 4.56618 0.916623 4.73672C-0.275513 10.9635 -0.335205 18.1077 0.916623 24.7745ZM16.4127 20.9832V8.54508L27.0993 14.7735L16.4127 20.9832Z" fill="#E53935"/>
</svg>
