<svg width="61" height="58" viewBox="0 0 61 58" fill="none" xmlns="http://www.w3.org/2000/svg">
<g clip-path="url(#clip0_11_1664)">
<path d="M56.8971 18.2793C56.7044 17.5625 56.2342 16.9515 55.5908 16.581C54.947 16.2088 54.1815 16.1081 53.4634 16.3008C52.7462 16.494 52.1351 16.9638 51.7647 17.6072L51.2981 18.4191C50.8548 18.1644 50.2884 18.3143 50.0291 18.7554L47.6588 22.7957L46.8468 22.3291C46.6318 22.2047 46.3757 22.171 46.136 22.2357C45.8959 22.3008 45.6918 22.4585 45.5683 22.6745C45.3154 23.1206 45.4694 23.6874 45.9137 23.9435L46.7256 24.41L38.7937 38.1557L36.8339 43.3911L35.9007 45.1358C35.3544 46.0863 35.4127 47.2678 36.0502 48.1595L33.9506 50.7349L33.3628 49.2608C33.0976 48.6038 32.4838 48.1536 31.778 48.0985C31.0718 48.0429 30.3951 48.3919 30.0311 48.9993L29.6952 49.5684L29.3781 45.8357C29.3052 44.9526 28.6213 44.2427 27.7419 44.1361C26.862 44.0299 26.0291 44.5571 25.7479 45.3974L23.4524 52.2841C23.292 52.7712 23.5544 53.2961 24.0402 53.4601C24.1313 53.5025 24.2292 53.528 24.3295 53.5344C24.7305 53.5357 25.0877 53.2801 25.2162 52.9001L27.5022 46.0134L27.8289 49.8017C27.8963 50.61 28.4773 51.2821 29.2674 51.4653C30.0575 51.6484 30.8749 51.3003 31.2909 50.6045L31.6363 50.035L32.215 51.5003C32.4606 52.1178 33.016 52.5584 33.6735 52.6563C34.331 52.7543 34.9908 52.495 35.4064 51.976L37.5807 49.2235C37.8213 49.2863 38.0692 49.3178 38.318 49.3169C39.3181 49.3246 40.2467 48.7979 40.7534 47.9353L41.6866 46.377L45.242 42.0565L53.2579 28.1427L54.0698 28.6093C54.2863 28.7333 54.4439 28.9379 54.5082 29.1789C54.5729 29.4181 54.5391 29.6733 54.4152 29.8879L50.6825 36.3549C50.5417 36.5673 50.4939 36.8279 50.5504 37.0767C50.6069 37.325 50.7623 37.5396 50.981 37.6704C51.196 37.7953 51.4521 37.829 51.6918 37.7643C51.9319 37.6991 52.136 37.5415 52.2595 37.3255L55.9922 30.8584C56.3645 30.2146 56.4652 29.4491 56.272 28.731C56.0788 28.0138 55.609 27.4028 54.9656 27.0323L54.1537 26.5657L56.4866 22.525C56.7413 22.0817 56.5914 21.5157 56.1508 21.256L56.6174 20.4441C56.9997 19.7902 57.1008 19.0092 56.8971 18.2793ZM53.3791 18.5403C53.5025 18.3244 53.7076 18.1663 53.9486 18.102C54.1883 18.0428 54.4416 18.076 54.6576 18.1954C54.874 18.3189 55.0317 18.5239 55.0964 18.7645C55.1556 19.0042 55.1224 19.2575 55.003 19.4735L54.5364 20.2855L52.9125 19.3523L53.3791 18.5403ZM40.66 44.5949L40.1934 44.3243L38.8124 43.5214L40.1374 39.9756L43.0768 41.6738L40.66 44.5949ZM37.8605 47.2915C37.4664 47.0167 37.3452 46.4882 37.5807 46.069L38.0473 45.2575L39.6708 46.1906L39.2042 46.993C39.0734 47.22 38.8538 47.3813 38.5982 47.4382C38.3426 47.4947 38.0751 47.4419 37.8605 47.2915ZM44.1407 40.1437L40.912 38.2773L48.3774 25.3432L51.6061 27.2096L44.1407 40.1437ZM52.5393 25.5952L49.3106 23.7288L51.1769 20.5001L54.4056 22.3664L52.5393 25.5952Z" fill="white"/>
<path d="M15.7251 46.8248L12.4221 50.1192L10.4436 48.1408C10.0795 47.779 9.49175 47.779 9.12769 48.1408C8.95089 48.3162 8.85156 48.5545 8.85156 48.8033C8.85156 49.0521 8.95089 49.2908 9.12769 49.4658L11.1061 51.4442C11.4561 51.7914 11.929 51.986 12.4221 51.9855C12.9178 51.9883 13.3949 51.7937 13.7471 51.4442L17.041 48.1408C17.3581 47.7703 17.3367 47.2185 16.9922 46.874C16.6473 46.5291 16.0955 46.5077 15.7251 46.8248Z" fill="white"/>
<path d="M4.73291 49.3351C4.73291 53.7162 8.28426 57.2671 12.6649 57.2671C17.0455 57.2671 20.5969 53.7162 20.5969 49.3351C20.5969 48.8198 20.179 48.402 19.6637 48.402C19.1484 48.402 18.7305 48.8198 18.7305 49.3351C18.7305 52.6851 16.0148 55.4008 12.6649 55.4008C9.31494 55.4008 6.59926 52.6851 6.59926 49.3351C6.59926 45.9852 9.31494 43.2695 12.6649 43.2695C13.9781 43.2658 15.2562 43.6919 16.3042 44.4829C16.7165 44.7923 17.3016 44.7084 17.6105 44.2961C17.9199 43.8837 17.8365 43.2991 17.4242 42.9897C15.0206 41.1871 11.8046 40.8974 9.11765 42.2406C6.43021 43.5843 4.73291 46.331 4.73291 49.3351Z" fill="white"/>
<path d="M41.5941 3.54811C42.1095 3.54811 42.5273 3.13074 42.5273 2.61494C42.5273 2.0996 42.1095 1.68176 41.5941 1.68176H17.3316C16.8163 1.68176 16.3984 2.0996 16.3984 2.61494V6.34764C16.3984 6.86344 16.8163 7.28081 17.3316 7.28081H41.5941C42.1095 7.28081 42.5273 6.86344 42.5273 6.34764C42.5273 5.8323 42.1095 5.41446 41.5941 5.41446H18.2648V3.54811H41.5941Z" fill="white"/>
<path d="M20.1314 13.0738C19.6161 13.0738 19.1982 13.4916 19.1982 14.007C19.1982 14.5228 19.6161 14.9401 20.1314 14.9401H38.7949C39.3102 14.9401 39.7281 14.5228 39.7281 14.007C39.7281 13.4916 39.3102 13.0738 38.7949 13.0738H20.1314Z" fill="white"/>
<path d="M37.3937 24.6061H16.8638C16.3485 24.6061 15.9307 25.0239 15.9307 25.5393C15.9307 26.0551 16.3485 26.4724 16.8638 26.4724H37.3937C37.909 26.4724 38.3268 26.0551 38.3268 25.5393C38.3268 25.0239 37.909 24.6061 37.3937 24.6061Z" fill="white"/>
<path d="M28.0621 31.1383C28.0621 30.623 27.6442 30.2051 27.1289 30.2051H8.4654C7.95006 30.2051 7.53223 30.623 7.53223 31.1383C7.53223 31.6541 7.95006 32.0715 8.4654 32.0715H27.1289C27.6442 32.0715 28.0621 31.6541 28.0621 31.1383Z" fill="white"/>
<path d="M37.3936 30.2051H30.8614C30.3461 30.2051 29.9282 30.623 29.9282 31.1383C29.9282 31.6541 30.3461 32.0715 30.8614 32.0715H37.3936C37.909 32.0715 38.3268 31.6541 38.3268 31.1383C38.3268 30.623 37.909 30.2051 37.3936 30.2051Z" fill="white"/>
<path d="M17.7971 36.7372C18.3125 36.7372 18.7303 36.3199 18.7303 35.8041C18.7303 35.2887 18.3125 34.8709 17.7971 34.8709H8.4654C7.95006 34.8709 7.53223 35.2887 7.53223 35.8041C7.53223 36.3199 7.95006 36.7372 8.4654 36.7372H17.7971Z" fill="white"/>
<path d="M21.5299 36.7372H28.0621C28.5774 36.7372 28.9953 36.3199 28.9953 35.8041C28.9953 35.2887 28.5774 34.8709 28.0621 34.8709H21.5299C21.0145 34.8709 20.5967 35.2887 20.5967 35.8041C20.5967 36.3199 21.0145 36.7372 21.5299 36.7372Z" fill="white"/>
<path d="M42.9928 47.9352C42.4775 47.9352 42.0597 48.353 42.0597 48.8683V58.2001C42.0597 58.7159 41.6418 59.1333 41.1265 59.1333H3.79952C3.28418 59.1333 2.86635 58.7159 2.86635 58.2001V7.80868C2.86635 7.29334 3.28418 6.8755 3.79952 6.8755H41.1265C41.6418 6.8755 42.0597 7.29334 42.0597 7.80868V25.3339C42.0597 25.8493 42.4775 26.2671 42.9928 26.2671C43.5082 26.2671 43.926 25.8493 43.926 25.3339V7.80868C43.926 6.26265 42.6725 5.00916 41.1265 5.00916H3.79952C2.2535 5.00916 1 6.26265 1 7.80868V58.2001C1 59.7466 2.2535 60.9996 3.79952 60.9996H41.1265C42.6725 60.9996 43.926 59.7466 43.926 58.2001V48.8683C43.926 48.353 43.5082 47.9352 42.9928 47.9352Z" fill="white"/>
</g>
<defs>
<clipPath id="clip0_11_1664">
<rect width="61" height="57" fill="white" transform="translate(0 0.0733643)"/>
</clipPath>
</defs>
</svg>
