<svg width="26" height="24" viewBox="0 0 26 24" fill="none" xmlns="http://www.w3.org/2000/svg">
<path d="M20.5254 11.8513L20.5254 12.7009L26 12.7009L26 24L14.8836 24L14.8836 11.9363C14.8836 7.85841 15.8169 4.84248 17.6836 2.8885C19.5224 0.962835 22.2945 3.49076e-06 26 3.8147e-06L26 4.8C22.3503 5.19646 20.5254 7.54691 20.5254 11.8513ZM5.68357 11.8513L5.68357 12.7009L11.1582 12.7009L11.1582 24L-1.90735e-06 24L-8.52705e-07 11.9363C-4.96206e-07 7.85841 0.919399 4.84248 2.7582 2.8885C4.597 0.962833 7.397 2.18837e-06 11.1582 2.51718e-06L11.1582 4.8C7.50844 5.19646 5.68357 7.5469 5.68357 11.8513Z" fill="#FF0027"/>
</svg>
